<svg width="28" height="29" viewBox="0 0 28 29" fill="none" xmlns="http://www.w3.org/2000/svg">
<path d="M5.03999 2.74023C3.49439 2.74023 2.23999 3.99463 2.23999 5.54023V23.4602C2.23999 25.0058 3.49439 26.2602 5.03999 26.2602H22.96C24.5056 26.2602 25.76 25.0058 25.76 23.4602V5.54023C25.76 3.99463 24.5056 2.74023 22.96 2.74023H5.03999ZM14.6551 6.66023C15.7583 6.66023 16.8 7.65143 16.8 12.5402C16.8 14.2874 16.5027 16.8247 15.4667 18.9135C15.9147 19.4959 16.3632 19.6802 16.66 19.5402C17.5 19.137 18.0372 17.7204 18.5412 16.1748C18.6812 15.7548 19.1469 15.5253 19.5781 15.6541C20.0149 15.7885 20.2606 16.2361 20.1206 16.6505C19.695 17.9609 18.5026 21.2093 16.6994 21.2093C16.1282 21.2093 15.3603 21.1867 14.6267 20.4699C13.8035 21.5899 12.7794 22.3402 11.5642 22.3402C8.99381 22.3402 7.83999 20.3863 7.83999 18.4487C7.83999 16.3935 8.89327 13.9687 11.2733 13.9687C11.6765 13.9687 12.0456 14.0415 12.3648 14.1535C12.32 13.5935 12.32 13.1455 12.32 12.4735C12.32 12.4119 12.3423 6.66023 14.6551 6.66023ZM14.7219 8.36867C14.3803 8.95107 13.9781 10.6526 13.9781 12.467C13.9781 14.4382 14.2073 15.9505 14.5545 17.0705C15.0753 15.6313 15.1419 13.957 15.1419 12.5402C15.1419 9.87463 14.9851 8.73827 14.7219 8.36867ZM11.2667 15.6202C9.48591 15.6202 9.51999 18.3806 9.51999 18.487C9.51999 19.1814 9.68191 20.6602 11.5467 20.6602C12.2635 20.6602 12.9924 20.0889 13.6084 19.0809C13.2332 18.3809 12.88 17.2834 12.6448 16.1802C12.6 16.1466 12.555 16.1133 12.5158 16.0741C12.5158 16.0741 11.9723 15.6202 11.2667 15.6202Z" fill="#EA4C89"/>
</svg>
