<svg width="28" height="29" viewBox="0 0 28 29" fill="none" xmlns="http://www.w3.org/2000/svg">
<path d="M14 1.62012C21.1137 1.62012 26.88 7.38644 26.88 14.5001C26.88 21.6138 21.1137 27.3801 14 27.3801C6.88632 27.3801 1.12 21.6138 1.12 14.5001C1.12 7.38644 6.88632 1.62012 14 1.62012ZM18.443 19.7501C18.6799 19.0232 19.7898 11.7791 19.927 10.3516C19.9685 9.91932 19.8318 9.63204 19.5642 9.5038C19.2405 9.34812 18.7611 9.42596 18.205 9.62644C17.4423 9.9014 7.6916 14.0415 7.12824 14.2812C6.594 14.508 6.08888 14.7555 6.08888 15.1139C6.08888 15.3659 6.2384 15.5076 6.65056 15.6548C7.07952 15.8077 8.15976 16.1353 8.7976 16.3112C9.41192 16.4808 10.1114 16.3336 10.5034 16.09C10.9189 15.8318 15.7142 12.623 16.0586 12.3419C16.4024 12.0608 16.6768 12.4208 16.3957 12.7025C16.1146 12.9836 12.8229 16.1784 12.3889 16.6208C11.8619 17.1579 12.236 17.7145 12.5894 17.9374C12.9931 18.1916 15.8967 20.1393 16.3341 20.4518C16.7714 20.7643 17.215 20.906 17.621 20.906C18.027 20.906 18.2409 20.3712 18.443 19.7501Z" fill="#229ED9"/>
</svg>
