<svg width="28" height="29" viewBox="0 0 28 29" fill="none" xmlns="http://www.w3.org/2000/svg">
<path d="M22.96 2.74023H5.03999C3.49439 2.74023 2.23999 3.99463 2.23999 5.54023V23.4602C2.23999 25.0058 3.49439 26.2602 5.03999 26.2602H22.96C24.5056 26.2602 25.76 25.0058 25.76 23.4602V5.54023C25.76 3.99463 24.5056 2.74023 22.96 2.74023ZM21.1232 18.9802L19.0344 18.9746C19.0344 18.9746 18.9896 18.9802 18.9168 18.9802C18.7488 18.9802 18.4016 18.9354 17.9928 18.6554C17.2592 18.1458 16.5592 16.8802 16.0048 16.8802C15.9656 16.8802 15.932 16.8858 15.8984 16.897C15.4168 17.0482 15.2712 17.5298 15.2712 18.1178C15.2712 18.325 15.1256 18.4202 14.7336 18.4202H13.6528C12.4432 18.4202 11.2728 18.3922 9.95679 16.953C8.01919 14.8306 6.20479 11.0562 6.20479 11.0562C6.20479 11.0562 6.10399 10.8378 6.21039 10.709C6.31119 10.5914 6.54639 10.5802 6.63599 10.5802C6.65839 10.5802 6.66959 10.5802 6.66959 10.5802H8.90959C8.90959 10.5802 9.11679 10.6194 9.26799 10.7314C9.39679 10.8266 9.46399 11.0002 9.46399 11.0002C9.46399 11.0002 9.84479 11.7394 10.3208 12.5738C11.1216 13.9514 11.5528 14.4106 11.8608 14.4106C11.9112 14.4106 11.9616 14.3994 12.012 14.3714C12.4712 14.1194 12.3368 12.081 12.3368 12.081C12.3368 12.081 12.3424 11.3418 12.1016 11.017C11.9168 10.7594 11.564 10.6866 11.4072 10.6642C11.284 10.6474 11.4856 10.3562 11.7544 10.2218C12.1016 10.0538 12.6784 10.0202 13.3728 10.0202H13.7088C14.364 10.0314 14.3808 10.0986 14.6384 10.1602C15.4112 10.345 15.148 11.0674 15.148 12.7978C15.148 13.3522 15.0472 14.1306 15.4448 14.3938C15.4728 14.4106 15.512 14.4218 15.5624 14.4218C15.82 14.4218 16.3744 14.0914 17.2592 12.5962C17.752 11.745 18.1328 10.8994 18.1328 10.8994C18.1328 10.8994 18.2168 10.7482 18.3456 10.6698C18.4688 10.597 18.4688 10.597 18.6312 10.597H18.648C18.8272 10.597 20.608 10.5802 21 10.5802H21.0448C21.42 10.5802 21.7616 10.5858 21.8232 10.8154C21.9128 11.1626 21.5488 11.7842 20.5912 13.0722C19.012 15.1834 18.8328 15.0266 20.1432 16.2474C21.3976 17.4122 21.6552 17.9778 21.7 18.0506C22.2208 18.913 21.1232 18.9802 21.1232 18.9802Z" fill="#0077FF"/>
</svg>
