<svg width="65" height="44" viewBox="0 0 65 44" fill="none" xmlns="http://www.w3.org/2000/svg">
<path d="M65 15C65 23.2843 48.2843 30 40 30C31.7157 30 25 23.2843 25 15C25 6.71573 31.7157 0 40 0C48.2843 0 65 6.71573 65 15Z" fill="white"/>
<path d="M40 15C40 23.2843 33.2843 30 25 30C16.7157 30 1.52588e-05 23.2843 1.52588e-05 15C1.52588e-05 6.71573 16.7157 0 25 0C33.2843 0 40 6.71573 40 15Z" fill="#E4FFC9"/>
<path d="M13.0338 33.9501L11.0392 39.4404L9.17846 38.529L10.8865 34.7512L8.34507 38.1207L6.46277 37.1987L7.53886 33.147L5.6222 36.7869L3.76146 35.8754L6.87681 30.9341L9.31949 32.1306L8.27992 35.835L10.4905 32.7043L13.0338 33.9501Z" fill="white"/>
<path d="M15.3428 39.1873C17.3038 39.699 18.7311 40.0491 19.6247 40.2377C19.5323 40.4393 19.4508 40.6522 19.38 40.8762C19.3158 41.0964 19.2383 41.3766 19.1477 41.7167L13.1414 40.1156C13.4492 39.1268 13.7191 38.197 13.9513 37.326C14.1834 36.4551 14.4122 35.5143 14.6374 34.5036L20.6437 36.1047L20.2707 37.5038L16.0888 36.389L15.8909 37.1311C16.1369 37.2022 16.5021 37.3023 16.9865 37.4314C17.8059 37.6499 18.6578 37.8604 19.5421 38.063L19.1877 39.3926C18.3198 39.1281 17.4762 38.8867 16.6568 38.6682C16.1724 38.5391 15.8059 38.4441 15.5571 38.3834L15.3428 39.1873Z" fill="white"/>
<path d="M27.8691 39.0471C27.8109 39.5074 27.648 39.8819 27.3804 40.1707C27.1181 40.4601 26.7054 40.6418 26.1423 40.7158C26.1951 40.8085 26.2317 40.8803 26.2522 40.9313L27.3124 42.8795L25.1535 42.6068C24.9755 42.1435 24.6853 41.4833 24.2829 40.6261L23.1162 40.4787L22.8836 42.32L21.0104 42.0834C21.1824 41.0623 21.3249 40.1046 21.4379 39.2103C21.5509 38.3161 21.651 37.3531 21.7384 36.3212L23.6115 36.5578L23.6105 36.5658L25.2375 36.7713C26.3064 36.9063 27.0307 37.1725 27.4106 37.57C27.7904 37.9674 27.9433 38.4597 27.8691 39.0471ZM23.418 38.0897L23.3037 38.9945L24.3751 39.1298C24.8249 39.1866 25.1652 39.2162 25.3961 39.2185C25.6329 39.2161 25.8003 39.1889 25.8983 39.1368C25.9963 39.0846 26.0529 38.9977 26.0683 38.876C26.083 38.7596 26.052 38.6643 25.9754 38.5901C25.8988 38.5159 25.7457 38.4509 25.5162 38.395C25.2868 38.3392 24.9445 38.2825 24.4894 38.225L23.418 38.0897Z" fill="white"/>
<path d="M32.4886 43.0802C31.2672 43.0828 30.368 42.8206 29.7909 42.2938C29.2138 41.7617 28.9243 41.0156 28.9223 40.0556C28.9203 39.1063 29.2041 38.3644 29.7736 37.8299C30.3485 37.2953 31.2493 37.0268 32.476 37.0242C33.708 37.0217 34.6099 37.2865 35.1816 37.8186C35.7587 38.3507 36.0483 39.0915 36.0503 40.0408C36.0523 41.0061 35.7685 41.7534 35.1989 42.2826C34.6293 42.8118 33.7259 43.0776 32.4886 43.0802ZM32.4852 41.4482C33.0772 41.447 33.5036 41.3341 33.7645 41.1096C34.0253 40.8797 34.1553 40.5248 34.1543 40.0448C34.1533 39.5754 34.0219 39.2264 33.7601 38.9976C33.4983 38.7688 33.0714 38.655 32.4794 38.6562C31.8927 38.6574 31.4689 38.773 31.2081 39.0029C30.9472 39.2327 30.8173 39.5824 30.8183 40.0517C30.8193 40.5264 30.9507 40.8781 31.2125 41.1069C31.4743 41.3357 31.8985 41.4494 32.4852 41.4482Z" fill="white"/>
<path d="M41.6668 36.501L43.6324 36.2314L44.0651 39.3858C44.1611 40.164 43.9823 40.8426 43.5288 41.4216C43.0806 41.9999 42.2409 42.3735 41.0098 42.5424C39.7628 42.7134 38.8765 42.5901 38.3508 42.1723C37.8244 41.7492 37.5125 41.1433 37.4151 40.3546L36.9748 37.1447L38.9403 36.875L39.3633 39.9582C39.3952 40.1906 39.4371 40.3787 39.4891 40.5223C39.5457 40.6599 39.6751 40.7794 39.8774 40.8808C40.0851 40.9816 40.3976 41.0033 40.815 40.946C41.2694 40.8837 41.5936 40.7746 41.7876 40.6188C41.9808 40.4577 42.085 40.2954 42.1003 40.1318C42.1208 39.9675 42.114 39.7612 42.08 39.5128L41.6668 36.501Z" fill="white"/>
<path d="M46.628 40.896C46.7228 40.5831 46.7925 40.2974 46.8369 40.0388C46.8864 39.7787 46.9201 39.4844 46.9378 39.1559C47.3635 39.2557 47.8341 39.2917 48.3495 39.2641C48.8648 39.2365 49.3293 39.1602 49.7428 39.0352C50.1666 38.9071 50.4544 38.7811 50.6064 38.6572C50.7568 38.5282 50.8189 38.4203 50.7927 38.3335C50.6986 38.022 50.1767 38.0098 49.2271 38.2968C48.1857 38.6116 47.3977 38.7328 46.8632 38.6603C46.3272 38.5827 45.9859 38.3014 45.8393 37.8164C45.631 37.1272 45.7633 36.5328 46.2364 36.0333C46.7094 35.5337 47.4029 35.1459 48.3167 34.8697C48.8476 34.7092 49.4122 34.6138 50.0103 34.5834C50.612 34.5465 51.173 34.5775 51.6932 34.6765C51.647 35.0582 51.6155 35.5163 51.5987 36.0506C51.5989 36.162 51.5966 36.2463 51.5916 36.3035C51.2679 36.1729 50.8224 36.1181 50.2549 36.1392C49.6858 36.1552 49.1997 36.2241 48.7963 36.346C48.3113 36.4926 47.9946 36.6246 47.8462 36.7418C47.6963 36.854 47.6398 36.9714 47.6768 37.0939C47.7139 37.2164 47.8588 37.2813 48.1117 37.2884C48.3681 37.2889 48.7159 37.2228 49.1549 37.0901C50.2373 36.763 51.0613 36.6505 51.627 36.7525C52.1911 36.8494 52.5504 37.1531 52.7047 37.6637C52.9207 38.3784 52.8162 38.9727 52.3911 39.4466C51.9645 39.9154 51.2228 40.3095 50.166 40.6289C49.5993 40.8002 49.0039 40.9133 48.3798 40.9682C47.7541 41.018 47.1702 40.994 46.628 40.896Z" fill="white"/>
<path d="M56.7044 36.4931C58.4896 35.5337 59.7738 34.819 60.5569 34.3491C60.6264 34.5597 60.7114 34.7712 60.812 34.9835C60.9148 35.1885 61.0487 35.4465 61.2137 35.7575L55.723 38.6714C55.2757 37.7374 54.8408 36.8724 54.4182 36.0762C53.9957 35.28 53.5231 34.435 53.0004 33.541L58.4911 30.6272L59.1699 31.9062L55.3469 33.935L55.7069 34.6134C55.9355 34.4981 56.2713 34.323 56.7141 34.088C57.4631 33.6905 58.2306 33.2651 59.0165 32.8118L59.6615 34.0272C58.8456 34.424 58.0632 34.8211 57.3141 35.2186C56.8713 35.4536 56.538 35.6335 56.3144 35.7582L56.7044 36.4931Z" fill="white"/>
</svg>
