<svg width="28" height="29" viewBox="0 0 28 29" fill="none" xmlns="http://www.w3.org/2000/svg">
<path d="M5.03999 2.74023C3.49439 2.74023 2.23999 3.99463 2.23999 5.54023V23.4602C2.23999 25.0058 3.49439 26.2602 5.03999 26.2602H22.96C24.5056 26.2602 25.76 25.0058 25.76 23.4602V5.54023C25.76 3.99463 24.5056 2.74023 22.96 2.74023H5.03999ZM6.71999 10.5802H10.4891C10.8979 10.5802 13.1097 10.5524 13.1097 12.5796C13.1097 13.6548 12.3759 14.0185 12.0455 14.1809C12.5383 14.3377 13.44 14.7914 13.44 16.1802C13.44 18.325 10.9813 18.4202 10.6509 18.4202H6.71999V10.5802ZM16.24 10.5802H20.16V11.7002H16.24V10.5802ZM8.39999 11.9409V13.7784H10.2036C10.45 13.7784 11.2667 13.6434 11.2667 12.8202C11.2667 11.997 10.203 11.9409 10.0406 11.9409H8.39999ZM18.3291 12.2602C20.5131 12.2602 21.1062 13.9625 21.1958 14.3657C21.2798 14.7745 21.28 15.133 21.28 15.6202H16.8558C16.8558 16.1074 17.1139 17.2051 18.4187 17.2051C18.7659 17.2051 19.0229 17.1214 19.2861 16.959C19.5437 16.7966 19.6341 16.639 19.7181 16.4766H21.1903C20.9327 17.1206 20.5856 17.6087 20.0648 17.9335C19.544 18.2583 18.9392 18.4202 18.2448 18.4202C17.808 18.4202 17.3768 18.3365 16.94 18.1741C16.5928 18.0117 16.246 17.7707 15.9884 17.5299C15.7308 17.2835 15.5572 16.9586 15.3836 16.5554C15.21 16.2306 15.12 15.7434 15.12 15.3402C15.12 14.937 15.2827 12.2602 18.3291 12.2602ZM18.3291 13.3966C17.0635 13.3966 16.8558 14.6121 16.8558 14.6905H19.6339C19.5443 14.2873 19.1803 13.3966 18.3291 13.3966ZM8.39999 14.8984V17.0596H10.2769C10.4387 17.0596 11.5806 17.0096 11.5806 16.0184C11.5806 15.0328 10.6834 14.8984 10.2769 14.8984H8.39999Z" fill="#0057FF"/>
</svg>
