<svg width="28" height="29" viewBox="0 0 28 29" fill="none" xmlns="http://www.w3.org/2000/svg">
<path d="M14 3.2998C7.81479 3.2998 2.79999 8.3146 2.79999 14.4998C2.79999 19.7479 6.41385 24.1393 11.2859 25.3545C11.2336 25.2033 11.2 25.0278 11.2 24.8103V22.8961C10.7455 22.8961 9.98385 22.8961 9.79252 22.8961C9.02625 22.8961 8.34492 22.5666 8.01452 21.9543C7.64772 21.2739 7.58425 20.2333 6.67519 19.5967C6.40545 19.3849 6.61079 19.1431 6.92159 19.1758C7.49559 19.3382 7.97159 19.7321 8.41959 20.3163C8.86572 20.9015 9.07572 21.0341 9.90919 21.0341C10.3133 21.0341 10.9181 21.0107 11.4875 20.9211C11.7936 20.1437 12.3228 19.4278 12.9696 19.0899C9.23999 18.7063 7.46012 16.8509 7.46012 14.3318C7.46012 13.2473 7.92212 12.1982 8.70706 11.3143C8.44946 10.437 8.12559 8.6478 8.80599 7.96647C10.4841 7.96647 11.4987 9.05474 11.7423 9.34874C12.5785 9.0622 13.4969 8.8998 14.462 8.8998C15.4289 8.8998 16.3511 9.0622 17.1892 9.3506C17.43 9.05847 18.4455 7.96647 20.1273 7.96647C20.8105 8.64874 20.4829 10.4454 20.2225 11.3209C21.0028 12.2029 21.462 13.2491 21.462 14.3318C21.462 16.849 19.6849 18.7035 15.9609 19.089C16.9857 19.6238 17.7333 21.1265 17.7333 22.2586V24.8103C17.7333 24.9074 17.7119 24.9774 17.7007 25.0605C22.0649 23.5307 25.2 19.3867 25.2 14.4998C25.2 8.3146 20.1852 3.2998 14 3.2998Z" fill="white"/>
</svg>
