<svg width="390" height="355" viewBox="0 0 390 355" fill="none" xmlns="http://www.w3.org/2000/svg">
<path opacity="0.5" fill-rule="evenodd" clip-rule="evenodd" d="M334.836 177.822C334.836 262.865 266.198 331.806 181.53 331.806C96.8611 331.806 28.2237 262.865 28.2237 177.822C28.2237 92.7792 96.8611 23.8384 181.53 23.8384C266.198 23.8384 334.836 92.7792 334.836 177.822ZM335.477 177.822C335.477 263.22 266.552 332.45 181.53 332.45C96.507 332.45 27.5822 263.22 27.5822 177.822C27.5822 92.4236 96.507 23.1941 181.53 23.1941C266.552 23.1941 335.477 92.4236 335.477 177.822ZM304.046 177.822C304.046 245.785 249.193 300.88 181.53 300.88C113.866 300.88 59.0131 245.785 59.0131 177.822C59.0131 109.859 113.866 54.764 181.53 54.764C249.193 54.764 304.046 109.859 304.046 177.822ZM304.688 177.822C304.688 246.141 249.548 301.524 181.53 301.524C113.511 301.524 58.3717 246.141 58.3717 177.822C58.3717 109.503 113.511 54.1197 181.53 54.1197C249.548 54.1197 304.688 109.503 304.688 177.822ZM181.53 208.103C198.18 208.103 211.678 194.546 211.678 177.822C211.678 161.098 198.18 147.541 181.53 147.541C164.88 147.541 151.382 161.098 151.382 177.822C151.382 194.546 164.88 208.103 181.53 208.103ZM181.53 208.748C198.534 208.748 212.319 194.902 212.319 177.822C212.319 160.742 198.534 146.896 181.53 146.896C164.525 146.896 150.74 160.742 150.74 177.822C150.74 194.902 164.525 208.748 181.53 208.748ZM181.53 179.111C182.238 179.111 182.813 178.534 182.813 177.822C182.813 177.11 182.238 176.533 181.53 176.533C180.821 176.533 180.247 177.11 180.247 177.822C180.247 178.534 180.821 179.111 181.53 179.111ZM181.53 239.029C215.184 239.029 242.467 211.626 242.467 177.822C242.467 144.018 215.184 116.615 181.53 116.615C147.875 116.615 120.592 144.018 120.592 177.822C120.592 211.626 147.875 239.029 181.53 239.029ZM181.53 239.673C215.539 239.673 243.109 211.981 243.109 177.822C243.109 143.663 215.539 115.971 181.53 115.971C147.521 115.971 119.951 143.663 119.951 177.822C119.951 211.981 147.521 239.673 181.53 239.673ZM273.257 177.822C273.257 228.706 232.189 269.954 181.53 269.954C130.87 269.954 89.8026 228.706 89.8026 177.822C89.8026 126.938 130.87 85.6895 181.53 85.6895C232.189 85.6895 273.257 126.938 273.257 177.822ZM273.898 177.822C273.898 229.061 232.543 270.599 181.53 270.599C130.516 270.599 89.1612 229.061 89.1612 177.822C89.1612 126.583 130.516 85.0453 181.53 85.0453C232.543 85.0453 273.898 126.583 273.898 177.822Z" fill="#D3D3D3"/>
<path opacity="0.5" fill-rule="evenodd" clip-rule="evenodd" d="M72.8992 286.477L180.755 178.144H27.5822V177.5H180.849L72.3514 68.5226L72.8049 68.0671L181.209 176.95V23.1941H181.85V177.044L290.16 68.2559L290.613 68.7114L182.304 177.5H334.835V178.144H182.398L290.066 286.288L289.613 286.744L181.85 178.506V331.806H181.209V178.6L73.3527 286.933L72.8992 286.477Z" fill="#D3D3D3"/>
<path fill-rule="evenodd" clip-rule="evenodd" d="M181.53 27.0598C183.655 27.0598 185.378 25.329 185.378 23.1941C185.378 21.0591 183.655 19.3284 181.53 19.3284C179.404 19.3284 177.681 21.0591 177.681 23.1941C177.681 25.329 179.404 27.0598 181.53 27.0598ZM76.9737 67.6496C76.9737 69.7848 75.2508 71.5153 73.125 71.5153C70.9992 71.5153 69.2763 69.7848 69.2763 67.6496C69.2763 65.5144 70.9992 63.7839 73.125 63.7839C75.2508 63.7839 76.9737 65.5144 76.9737 67.6496ZM289.934 71.5153C292.06 71.5153 293.783 69.7848 293.783 67.6496C293.783 65.5144 292.06 63.7839 289.934 63.7839C287.808 63.7839 286.086 65.5144 286.086 67.6496C286.086 69.7848 287.808 71.5153 289.934 71.5153ZM289.934 290.572C292.06 290.572 293.783 288.841 293.783 286.706C293.783 284.571 292.06 282.84 289.934 282.84C287.808 282.84 286.086 284.571 286.086 286.706C286.086 288.841 287.808 290.572 289.934 290.572ZM73.125 290.572C75.2508 290.572 76.9737 288.841 76.9737 286.706C76.9737 284.571 75.2508 282.84 73.125 282.84C70.9992 282.84 69.2763 284.571 69.2763 286.706C69.2763 288.841 70.9992 290.572 73.125 290.572ZM338.684 177.178C338.684 179.313 336.961 181.043 334.836 181.043C332.71 181.043 330.987 179.313 330.987 177.178C330.987 175.043 332.71 173.312 334.836 173.312C336.961 173.312 338.684 175.043 338.684 177.178ZM26.9408 181.043C29.0664 181.043 30.7895 179.313 30.7895 177.178C30.7895 175.043 29.0664 173.312 26.9408 173.312C24.8152 173.312 23.0921 175.043 23.0921 177.178C23.0921 179.313 24.8152 181.043 26.9408 181.043ZM185.378 331.806C185.378 333.941 183.655 335.671 181.53 335.671C179.404 335.671 177.681 333.941 177.681 331.806C177.681 329.67 179.404 327.94 181.53 327.94C183.655 327.94 185.378 329.67 185.378 331.806Z" fill="#E4FFC9"/>
<path d="M156.922 344.903H159.334C160.107 344.903 160.706 345.092 161.13 345.47C161.575 345.862 161.797 346.418 161.797 347.14C161.797 347.813 161.602 348.353 161.212 348.758C160.815 349.163 160.234 349.366 159.467 349.366H158.502V351.779H156.922V344.903ZM158.502 346.202V348.068H159.067C159.457 348.068 159.741 347.982 159.919 347.81C160.09 347.638 160.175 347.411 160.175 347.129C160.175 346.841 160.09 346.617 159.919 346.459C159.741 346.287 159.446 346.202 159.036 346.202H158.502ZM162.765 351.779V344.264H164.243V347.727C164.413 347.514 164.598 347.356 164.797 347.253C165.043 347.122 165.341 347.057 165.69 347.057C166.25 347.057 166.681 347.212 166.983 347.521C167.284 347.823 167.434 348.27 167.434 348.861V351.779H165.957V349.418C165.957 348.964 165.874 348.658 165.71 348.5C165.573 348.363 165.382 348.294 165.135 348.294C164.896 348.294 164.701 348.37 164.55 348.521C164.345 348.72 164.243 349.04 164.243 349.48V351.779H162.765ZM173.043 347.769C173.502 348.229 173.731 348.799 173.731 349.48C173.731 350.16 173.502 350.73 173.043 351.191C172.551 351.686 171.884 351.933 171.042 351.933C170.2 351.933 169.533 351.686 169.041 351.191C168.583 350.73 168.353 350.16 168.353 349.48C168.353 348.799 168.583 348.229 169.041 347.769C169.533 347.274 170.2 347.026 171.042 347.026C171.884 347.026 172.551 347.274 173.043 347.769ZM171.873 348.614C171.655 348.394 171.377 348.284 171.042 348.284C170.707 348.284 170.43 348.394 170.211 348.614C169.985 348.841 169.872 349.129 169.872 349.48C169.872 349.83 169.985 350.119 170.211 350.346C170.43 350.565 170.71 350.676 171.052 350.676C171.381 350.676 171.655 350.565 171.873 350.346C172.099 350.119 172.212 349.83 172.212 349.48C172.212 349.129 172.099 348.841 171.873 348.614ZM177.188 348.377H176.274V351.779H174.796V348.377H174.283V347.181H174.796V345.697H176.274V347.181H177.188V348.377ZM182.389 347.769C182.848 348.229 183.077 348.799 183.077 349.48C183.077 350.16 182.848 350.73 182.389 351.191C181.897 351.686 181.229 351.933 180.388 351.933C179.546 351.933 178.879 351.686 178.387 351.191C177.929 350.73 177.699 350.16 177.699 349.48C177.699 348.799 177.929 348.229 178.387 347.769C178.879 347.274 179.546 347.026 180.388 347.026C181.229 347.026 181.897 347.274 182.389 347.769ZM181.219 348.614C181 348.394 180.723 348.284 180.388 348.284C180.053 348.284 179.776 348.394 179.557 348.614C179.331 348.841 179.218 349.129 179.218 349.48C179.218 349.83 179.331 350.119 179.557 350.346C179.776 350.565 180.056 350.676 180.398 350.676C180.727 350.676 181 350.565 181.219 350.346C181.445 350.119 181.558 349.83 181.558 349.48C181.558 349.129 181.445 348.841 181.219 348.614ZM187.488 347.418L186.903 348.356C186.616 348.184 186.346 348.098 186.092 348.098C185.9 348.098 185.761 348.143 185.671 348.232C185.61 348.294 185.579 348.363 185.579 348.439C185.579 348.521 185.627 348.59 185.723 348.645C185.736 348.658 185.884 348.71 186.164 348.799L186.554 348.923C186.882 349.026 187.136 349.16 187.314 349.325C187.553 349.545 187.673 349.837 187.673 350.201C187.673 350.689 187.516 351.091 187.201 351.407C186.852 351.758 186.356 351.933 185.712 351.933C184.96 351.933 184.334 351.714 183.834 351.273L184.46 350.274C184.638 350.425 184.806 350.538 184.963 350.614C185.155 350.71 185.36 350.758 185.579 350.758C185.798 350.758 185.952 350.724 186.041 350.655C186.144 350.572 186.195 350.473 186.195 350.356C186.195 350.246 186.14 350.157 186.031 350.088C185.956 350.04 185.805 349.985 185.579 349.923L185.21 349.81C184.902 349.714 184.655 349.573 184.471 349.387C184.252 349.153 184.142 348.875 184.142 348.552C184.142 348.119 184.289 347.765 184.584 347.49C184.919 347.181 185.381 347.026 185.969 347.026C186.537 347.026 187.043 347.157 187.488 347.418ZM188.695 351.779V344.264H190.173V347.727C190.344 347.514 190.528 347.356 190.727 347.253C190.974 347.122 191.271 347.057 191.62 347.057C192.181 347.057 192.612 347.212 192.913 347.521C193.214 347.823 193.365 348.27 193.365 348.861V351.779H191.887V349.418C191.887 348.964 191.805 348.658 191.641 348.5C191.503 348.363 191.312 348.294 191.066 348.294C190.826 348.294 190.631 348.37 190.481 348.521C190.276 348.72 190.173 349.04 190.173 349.48V351.779H188.695ZM198.974 347.769C199.432 348.229 199.661 348.799 199.661 349.48C199.661 350.16 199.432 350.73 198.974 351.191C198.481 351.686 197.814 351.933 196.972 351.933C196.131 351.933 195.464 351.686 194.971 351.191C194.513 350.73 194.284 350.16 194.284 349.48C194.284 348.799 194.513 348.229 194.971 347.769C195.464 347.274 196.131 347.026 196.972 347.026C197.814 347.026 198.481 347.274 198.974 347.769ZM197.804 348.614C197.585 348.394 197.308 348.284 196.972 348.284C196.638 348.284 196.361 348.394 196.141 348.614C195.915 348.841 195.802 349.129 195.802 349.48C195.802 349.83 195.915 350.119 196.141 350.346C196.361 350.565 196.641 350.676 196.983 350.676C197.311 350.676 197.585 350.565 197.804 350.346C198.03 350.119 198.142 349.83 198.142 349.48C198.142 349.129 198.03 348.841 197.804 348.614ZM202.164 351.253V354.139H200.686V347.181H202.164V347.727C202.52 347.26 202.995 347.026 203.59 347.026C204.24 347.026 204.781 347.243 205.212 347.676C205.67 348.136 205.899 348.734 205.899 349.469C205.899 350.212 205.656 350.827 205.171 351.315C204.76 351.727 204.244 351.933 203.621 351.933C202.971 351.933 202.485 351.706 202.164 351.253ZM203.231 348.305C202.91 348.305 202.636 348.418 202.41 348.645C202.177 348.879 202.061 349.16 202.061 349.49C202.061 349.799 202.171 350.071 202.389 350.304C202.622 350.538 202.903 350.655 203.231 350.655C203.532 350.655 203.796 350.549 204.021 350.335C204.261 350.109 204.381 349.817 204.381 349.459C204.381 349.122 204.264 348.844 204.032 348.624C203.806 348.411 203.539 348.305 203.231 348.305Z" fill="#E4FFC9"/>
<path d="M295.795 306.034H294.214L295.312 299.159H296.626L298.33 303.272L300.033 299.159H301.347L302.445 306.034H300.865L300.321 301.932L298.607 306.034H298.052L296.338 301.932L295.795 306.034ZM303.571 308.395L305.183 305.447L302.997 301.437H304.7L305.994 303.931L307.256 301.437H308.919L305.234 308.395H303.571ZM314.07 299.684L313.362 300.839C312.999 300.509 312.616 300.344 312.212 300.344C311.912 300.344 311.689 300.423 311.545 300.581C311.429 300.698 311.371 300.842 311.371 301.014C311.371 301.172 311.422 301.299 311.525 301.395C311.559 301.423 311.593 301.45 311.627 301.478C311.662 301.499 311.709 301.522 311.771 301.55C311.833 301.578 311.884 301.602 311.925 301.622C311.966 301.636 312.038 301.663 312.141 301.705C312.243 301.739 312.325 301.767 312.387 301.787L312.9 301.983C313.331 302.148 313.643 302.323 313.834 302.509C314.169 302.825 314.337 303.251 314.337 303.787C314.337 304.502 314.135 305.069 313.731 305.488C313.287 305.955 312.64 306.189 311.792 306.189C311.272 306.189 310.82 306.093 310.437 305.9C310.095 305.728 309.759 305.478 309.431 305.148L310.252 304.014C310.485 304.248 310.697 304.423 310.888 304.54C311.155 304.705 311.443 304.787 311.751 304.787C312.045 304.787 312.284 304.708 312.469 304.55C312.633 304.413 312.715 304.227 312.715 303.993C312.715 303.801 312.637 303.636 312.479 303.498C312.356 303.395 312.089 303.268 311.679 303.117L311.114 302.921C310.67 302.763 310.352 302.581 310.16 302.375C309.886 302.086 309.749 301.687 309.749 301.179C309.749 300.553 309.948 300.038 310.344 299.633C310.755 299.213 311.319 299.004 312.038 299.004C312.784 299.004 313.461 299.231 314.07 299.684ZM321.437 306.354L320.77 305.653C320.284 306.01 319.644 306.189 318.851 306.189C317.831 306.189 316.993 305.862 316.336 305.21C315.618 304.495 315.259 303.622 315.259 302.591C315.259 302.096 315.351 301.625 315.536 301.179C315.727 300.733 315.98 300.351 316.295 300.035C316.98 299.347 317.872 299.004 318.974 299.004C320.034 299.004 320.917 299.334 321.622 299.994C322.333 300.66 322.689 301.533 322.689 302.612C322.689 303.065 322.594 303.509 322.402 303.942C322.245 304.306 322.022 304.615 321.735 304.869L322.925 306.168L321.437 306.354ZM320.051 303.169L320.667 303.828C320.934 303.464 321.068 303.052 321.068 302.591C321.068 301.973 320.873 301.468 320.483 301.076C320.093 300.671 319.59 300.468 318.974 300.468C318.365 300.468 317.865 300.671 317.475 301.076C317.078 301.488 316.88 302.004 316.88 302.622C316.88 303.213 317.072 303.712 317.455 304.117C317.845 304.522 318.338 304.725 318.933 304.725C319.227 304.725 319.5 304.667 319.754 304.55L318.522 303.333L320.051 303.169ZM324.028 299.159H325.609V304.694H327.733V306.034H324.028V299.159Z" fill="#E4FFC9"/>
<path d="M344.596 174.168H346.176V181.043H344.596V174.168ZM347.672 173.529H349.149V181.043H347.672V173.529ZM350.48 173.529H351.958V181.043H350.48V173.529ZM353.248 176.446H354.726V178.982C354.726 179.319 354.811 179.566 354.982 179.724C355.139 179.868 355.345 179.94 355.598 179.94C355.858 179.94 356.067 179.868 356.224 179.724C356.388 179.566 356.47 179.319 356.47 178.982V176.446H357.948V179.126C357.948 179.442 357.914 179.717 357.846 179.951C357.784 180.178 357.647 180.394 357.435 180.6C357.032 180.999 356.419 181.198 355.598 181.198C354.77 181.198 354.154 180.999 353.751 180.6C353.415 180.27 353.248 179.81 353.248 179.219V176.446ZM362.59 176.683L362.005 177.621C361.718 177.449 361.448 177.363 361.195 177.363C361.003 177.363 360.863 177.408 360.774 177.497C360.712 177.559 360.681 177.628 360.681 177.704C360.681 177.786 360.73 177.855 360.825 177.91C360.839 177.923 360.986 177.975 361.266 178.064L361.656 178.188C361.985 178.291 362.238 178.425 362.416 178.59C362.655 178.81 362.775 179.102 362.775 179.466C362.775 179.954 362.618 180.356 362.303 180.672C361.954 181.023 361.458 181.198 360.815 181.198C360.062 181.198 359.436 180.978 358.937 180.538L359.563 179.538C359.74 179.69 359.908 179.803 360.066 179.879C360.257 179.975 360.463 180.023 360.681 180.023C360.9 180.023 361.054 179.989 361.143 179.92C361.246 179.837 361.297 179.738 361.297 179.621C361.297 179.511 361.243 179.422 361.133 179.353C361.058 179.305 360.907 179.25 360.681 179.188L360.312 179.075C360.004 178.979 359.758 178.837 359.573 178.652C359.354 178.418 359.245 178.14 359.245 177.817C359.245 177.384 359.391 177.03 359.686 176.755C360.021 176.446 360.483 176.291 361.071 176.291C361.639 176.291 362.146 176.422 362.59 176.683ZM366.189 177.642H365.275V181.043H363.798V177.642H363.284V176.446H363.798V174.961H365.275V176.446H366.189V177.642ZM366.926 181.043V176.446H368.404V177.167C368.547 176.886 368.739 176.673 368.979 176.528C369.184 176.398 369.447 176.332 369.769 176.332C369.94 176.332 370.1 176.356 370.251 176.405L370.169 177.796C369.964 177.686 369.741 177.631 369.502 177.631C369.201 177.631 368.955 177.734 368.763 177.941C368.524 178.195 368.404 178.607 368.404 179.178V181.043H366.926ZM374.327 176.961V176.446H375.805V181.043H374.327V180.487C374.019 180.961 373.567 181.198 372.972 181.198C372.267 181.198 371.696 180.964 371.258 180.497C370.814 180.023 370.591 179.449 370.591 178.776C370.591 178.013 370.827 177.394 371.299 176.92C371.717 176.501 372.247 176.291 372.89 176.291C373.519 176.291 373.998 176.515 374.327 176.961ZM373.26 177.57C372.938 177.57 372.667 177.68 372.449 177.899C372.223 178.126 372.11 178.404 372.11 178.734C372.11 179.064 372.213 179.339 372.418 179.559C372.644 179.799 372.934 179.92 373.29 179.92C373.591 179.92 373.848 179.814 374.06 179.6C374.299 179.374 374.419 179.085 374.419 178.734C374.419 178.384 374.306 178.102 374.081 177.889C373.862 177.676 373.588 177.57 373.26 177.57ZM379.486 177.642H378.573V181.043H377.095V177.642H376.582V176.446H377.095V174.961H378.573V176.446H379.486V177.642ZM384.688 177.033C385.146 177.494 385.375 178.064 385.375 178.745C385.375 179.425 385.146 179.995 384.688 180.456C384.195 180.951 383.528 181.198 382.686 181.198C381.845 181.198 381.178 180.951 380.685 180.456C380.226 179.995 379.997 179.425 379.997 178.745C379.997 178.064 380.226 177.494 380.685 177.033C381.178 176.539 381.845 176.291 382.686 176.291C383.528 176.291 384.195 176.539 384.688 177.033ZM383.518 177.879C383.299 177.659 383.022 177.549 382.686 177.549C382.351 177.549 382.074 177.659 381.855 177.879C381.629 178.106 381.516 178.394 381.516 178.745C381.516 179.095 381.629 179.384 381.855 179.611C382.074 179.83 382.355 179.94 382.697 179.94C383.025 179.94 383.299 179.83 383.518 179.611C383.743 179.384 383.856 179.095 383.856 178.745C383.856 178.394 383.743 178.106 383.518 177.879ZM386.4 181.043V176.446H387.877V177.167C388.021 176.886 388.212 176.673 388.452 176.528C388.657 176.398 388.92 176.332 389.242 176.332C389.413 176.332 389.574 176.356 389.725 176.405L389.643 177.796C389.437 177.686 389.215 177.631 388.976 177.631C388.674 177.631 388.428 177.734 388.237 177.941C387.997 178.195 387.877 178.607 387.877 179.178V181.043H386.4Z" fill="#E4FFC9"/>
<path d="M45.5 47.8882V50.5065H48.23V47.8882H49.8105V54.764H48.23V51.8467H45.5V54.764H43.9194V47.8882H45.5ZM55.2985 49.2283H53.8103V54.764H52.2298V49.2283H50.7416V47.8882H55.2985V49.2283ZM57.4944 54.764H55.9139L57.012 47.8882H58.3257L60.0294 52.0013L61.7331 47.8882H63.0468L64.1447 54.764H62.5644L62.0204 50.6612L60.3065 54.764H59.7523L58.0383 50.6612L57.4944 54.764ZM65.4251 47.8882H67.0056V53.4239H69.1301V54.764H65.4251V47.8882Z" fill="#E4FFC9"/>
<path d="M22.2638 299.159H23.8443V303.839C23.8443 304.67 23.6459 305.282 23.249 305.674C22.9069 306.017 22.4246 306.189 21.8019 306.189C21.3503 306.189 20.9877 306.107 20.714 305.942C20.4746 305.79 20.259 305.598 20.0674 305.364L21.0527 304.251C21.1417 304.43 21.2238 304.557 21.299 304.632C21.4017 304.736 21.5317 304.787 21.689 304.787C21.8396 304.787 21.9627 304.739 22.0585 304.643C22.1954 304.506 22.2638 304.234 22.2638 303.828V299.159ZM28.7813 301.952V301.437H30.2591V306.034H28.7813V305.478C28.4734 305.952 28.0218 306.189 27.4265 306.189C26.7218 306.189 26.1505 305.955 25.7126 305.488C25.2679 305.014 25.0455 304.44 25.0455 303.767C25.0455 303.004 25.2815 302.385 25.7536 301.911C26.171 301.492 26.7013 301.282 27.3444 301.282C27.9739 301.282 28.4528 301.506 28.7813 301.952ZM27.7139 302.56C27.3923 302.56 27.1221 302.671 26.9031 302.89C26.6773 303.117 26.5644 303.395 26.5644 303.725C26.5644 304.055 26.667 304.33 26.8723 304.55C27.0981 304.79 27.3889 304.911 27.7447 304.911C28.0458 304.911 28.3023 304.805 28.5144 304.591C28.7539 304.364 28.8736 304.076 28.8736 303.725C28.8736 303.375 28.7607 303.093 28.5349 302.88C28.316 302.667 28.0423 302.56 27.7139 302.56ZM30.9535 301.437H32.5751L33.7348 303.901L34.8946 301.437H36.5161L34.1967 306.034H33.273L30.9535 301.437ZM40.5727 301.952V301.437H42.0506V306.034H40.5727V305.478C40.2648 305.952 39.8132 306.189 39.2179 306.189C38.5132 306.189 37.9419 305.955 37.504 305.488C37.0593 305.014 36.8369 304.44 36.8369 303.767C36.8369 303.004 37.0729 302.385 37.545 301.911C37.9624 301.492 38.4927 301.282 39.1358 301.282C39.7653 301.282 40.2442 301.506 40.5727 301.952ZM39.5053 302.56C39.1837 302.56 38.9135 302.671 38.6945 302.89C38.4687 303.117 38.3558 303.395 38.3558 303.725C38.3558 304.055 38.4584 304.33 38.6637 304.55C38.8895 304.79 39.1803 304.911 39.5361 304.911C39.8372 304.911 40.0938 304.805 40.3058 304.591C40.5453 304.364 40.665 304.076 40.665 303.725C40.665 303.375 40.5521 303.093 40.3263 302.88C40.1074 302.667 39.8337 302.56 39.5053 302.56ZM47.7123 299.684L47.0041 300.839C46.6415 300.509 46.2584 300.344 45.8547 300.344C45.5536 300.344 45.3312 300.423 45.1876 300.581C45.0713 300.698 45.0131 300.842 45.0131 301.014C45.0131 301.172 45.0644 301.3 45.167 301.396C45.2013 301.423 45.2355 301.45 45.2697 301.478C45.3039 301.499 45.3518 301.523 45.4133 301.55C45.4749 301.578 45.5262 301.602 45.5673 301.622C45.6083 301.636 45.6802 301.664 45.7828 301.705C45.8854 301.739 45.9676 301.767 46.0291 301.787L46.5423 301.983C46.9733 302.148 47.2847 302.323 47.4762 302.509C47.8115 302.825 47.9791 303.251 47.9791 303.787C47.9791 304.502 47.7773 305.069 47.3736 305.488C46.9289 305.955 46.2823 306.189 45.4339 306.189C44.9139 306.189 44.4623 306.093 44.0791 305.9C43.737 305.728 43.4018 305.478 43.0733 305.148L43.8944 304.014C44.127 304.248 44.3392 304.423 44.5307 304.54C44.7976 304.705 45.0849 304.787 45.3928 304.787C45.687 304.787 45.9265 304.708 46.1112 304.55C46.2754 304.413 46.3576 304.227 46.3576 303.993C46.3576 303.801 46.2789 303.636 46.1215 303.499C45.9983 303.395 45.7315 303.269 45.321 303.117L44.7565 302.921C44.3118 302.763 43.9936 302.581 43.802 302.375C43.5284 302.086 43.3915 301.687 43.3915 301.179C43.3915 300.554 43.59 300.038 43.9868 299.633C44.3973 299.213 44.9618 299.004 45.6802 299.004C46.426 299.004 47.1034 299.231 47.7123 299.684ZM52.4827 301.54V302.89C52.2022 302.656 51.8806 302.54 51.5179 302.54C51.1758 302.54 50.8953 302.65 50.6764 302.87C50.4506 303.097 50.3377 303.385 50.3377 303.736C50.3377 304.066 50.4403 304.341 50.6456 304.56C50.8714 304.808 51.169 304.931 51.5385 304.931C51.8874 304.931 52.2022 304.811 52.4827 304.571V305.911C52.1474 306.096 51.7574 306.189 51.3127 306.189C50.6011 306.189 50.0092 305.959 49.5371 305.498C49.0582 305.031 48.8187 304.447 48.8187 303.746C48.8187 303.017 49.0719 302.413 49.5782 301.932C50.0366 301.499 50.6182 301.282 51.3229 301.282C51.7335 301.282 52.1201 301.368 52.4827 301.54ZM53.5671 306.034V301.437H55.045V302.158C55.1887 301.877 55.3803 301.664 55.6197 301.519C55.825 301.389 56.0884 301.323 56.41 301.323C56.5811 301.323 56.7419 301.347 56.8924 301.396L56.8103 302.787C56.605 302.677 56.3827 302.622 56.1432 302.622C55.8421 302.622 55.5958 302.725 55.4042 302.932C55.1648 303.186 55.045 303.598 55.045 304.169V306.034H53.5671ZM57.7113 301.437H59.1892V306.034H57.7113V301.437ZM57.8345 300.097C57.6702 299.925 57.5881 299.719 57.5881 299.478C57.5881 299.238 57.6702 299.035 57.8345 298.87C58.0055 298.698 58.2107 298.612 58.4502 298.612C58.6897 298.612 58.8916 298.698 59.0558 298.87C59.2268 299.035 59.3124 299.238 59.3124 299.478C59.3124 299.719 59.2268 299.925 59.0558 300.097C58.8916 300.262 58.6897 300.344 58.4502 300.344C58.2107 300.344 58.0055 300.262 57.8345 300.097ZM62.0255 305.509V308.395H60.5476V301.437H62.0255V301.983C62.3814 301.516 62.8569 301.282 63.4521 301.282C64.1022 301.282 64.6425 301.499 65.0736 301.932C65.5322 302.392 65.7612 302.99 65.7612 303.725C65.7612 304.468 65.5187 305.083 65.0325 305.571C64.622 305.983 64.1056 306.189 63.4829 306.189C62.8329 306.189 62.3472 305.962 62.0255 305.509ZM63.0929 302.56C62.7714 302.56 62.4977 302.674 62.2719 302.901C62.0393 303.135 61.9229 303.416 61.9229 303.746C61.9229 304.055 62.0324 304.326 62.2513 304.56C62.484 304.794 62.7645 304.911 63.0929 304.911C63.394 304.911 63.6574 304.805 63.8832 304.591C64.1227 304.364 64.2423 304.073 64.2423 303.715C64.2423 303.378 64.1261 303.1 63.8934 302.88C63.6677 302.667 63.4008 302.56 63.0929 302.56ZM69.2167 302.633H68.3033V306.034H66.8254V302.633H66.3122V301.437H66.8254V299.952H68.3033V301.437H69.2167V302.633Z" fill="#E4FFC9"/>
<path d="M5.95183 179.003V180.827C5.46604 181.075 4.96315 181.198 4.44314 181.198C3.32788 181.198 2.43157 180.865 1.7542 180.198C1.04262 179.504 0.686829 178.635 0.686829 177.59C0.686829 176.559 1.04262 175.697 1.7542 175.003C2.43157 174.343 3.28341 174.013 4.30972 174.013C4.81604 174.013 5.36341 174.14 5.95183 174.395V176.23C5.49341 175.742 4.95972 175.498 4.35078 175.498C3.78972 175.498 3.32446 175.676 2.95499 176.034C2.52393 176.453 2.30841 176.982 2.30841 177.621C2.30841 178.247 2.50683 178.752 2.90367 179.137C3.28683 179.521 3.77946 179.714 4.38157 179.714C4.94946 179.714 5.47288 179.477 5.95183 179.003ZM11.5604 174.694L10.8522 175.848C10.4895 175.518 10.1064 175.353 9.70272 175.353C9.40163 175.353 9.1793 175.433 9.03562 175.59C8.91926 175.707 8.86114 175.851 8.86114 176.023C8.86114 176.181 8.91246 176.309 9.01509 176.405C9.04928 176.432 9.08347 176.46 9.11772 176.487C9.15191 176.508 9.19983 176.532 9.26141 176.559C9.32299 176.587 9.3743 176.611 9.41535 176.632C9.45641 176.645 9.52825 176.673 9.63088 176.714C9.73351 176.748 9.81562 176.776 9.8772 176.796L10.3904 176.992C10.8214 177.157 11.1327 177.333 11.3243 177.518C11.6595 177.834 11.8272 178.26 11.8272 178.796C11.8272 179.511 11.6253 180.078 11.2217 180.497C10.7769 180.964 10.1303 181.198 9.28193 181.198C8.76191 181.198 8.31033 181.102 7.9272 180.91C7.58505 180.738 7.24983 180.487 6.92141 180.157L7.74246 179.023C7.97505 179.257 8.18718 179.432 8.37878 179.549C8.64562 179.714 8.93299 179.796 9.24088 179.796C9.53505 179.796 9.77457 179.717 9.9593 179.559C10.1235 179.422 10.2056 179.236 10.2056 179.003C10.2056 178.81 10.1269 178.645 9.96957 178.508C9.84641 178.405 9.57957 178.278 9.16904 178.126L8.60457 177.93C8.15979 177.773 7.84163 177.59 7.65009 177.384C7.37639 177.095 7.23957 176.697 7.23957 176.188C7.23957 175.563 7.43797 175.047 7.83483 174.642C8.24535 174.223 8.80983 174.013 9.52825 174.013C10.274 174.013 10.9514 174.24 11.5604 174.694ZM17.3057 174.694L16.5975 175.848C16.2349 175.518 15.8518 175.353 15.448 175.353C15.147 175.353 14.9246 175.433 14.7809 175.59C14.6646 175.707 14.6065 175.851 14.6065 176.023C14.6065 176.181 14.6578 176.309 14.7604 176.405C14.7947 176.432 14.8289 176.46 14.863 176.487C14.8973 176.508 14.9451 176.532 15.0067 176.559C15.0683 176.587 15.1196 176.611 15.1607 176.632C15.2017 176.645 15.2736 176.673 15.3762 176.714C15.4788 176.748 15.5609 176.776 15.6225 176.796L16.1357 176.992C16.5667 177.157 16.8781 177.333 17.0696 177.518C17.4049 177.834 17.5725 178.26 17.5725 178.796C17.5725 179.511 17.3707 180.078 16.967 180.497C16.5223 180.964 15.8757 181.198 15.0272 181.198C14.5073 181.198 14.0557 181.102 13.6725 180.91C13.3304 180.738 12.9951 180.487 12.6667 180.157L13.4878 179.023C13.7204 179.257 13.9326 179.432 14.1241 179.549C14.3909 179.714 14.6783 179.796 14.9862 179.796C15.2804 179.796 15.5199 179.717 15.7046 179.559C15.8688 179.422 15.9509 179.236 15.9509 179.003C15.9509 178.81 15.8723 178.645 15.7149 178.508C15.5917 178.405 15.3249 178.278 14.9144 178.126L14.3499 177.93C13.9052 177.773 13.587 177.59 13.3954 177.384C13.1218 177.095 12.9849 176.697 12.9849 176.188C12.9849 175.563 13.1833 175.047 13.5801 174.642C13.9907 174.223 14.5551 174.013 15.2736 174.013C16.0194 174.013 16.6967 174.24 17.3057 174.694Z" fill="#E4FFC9"/>
<path d="M171.363 3.43283V4.77294H169.146V6.10274H171.199V7.44284H169.146V10.3086H167.566V3.43283H171.363ZM172.247 5.71101H173.725V10.3086H172.247V5.71101ZM172.37 4.3709C172.206 4.19909 172.124 3.99292 172.124 3.75239C172.124 3.51186 172.206 3.30912 172.37 3.14419C172.541 2.97238 172.746 2.88647 172.986 2.88647C173.225 2.88647 173.427 2.97238 173.592 3.14419C173.762 3.30912 173.848 3.51186 173.848 3.75239C173.848 3.99292 173.762 4.19909 173.592 4.3709C173.427 4.53584 173.225 4.61831 172.986 4.61831C172.746 4.61831 172.541 4.53584 172.37 4.3709ZM178.563 6.24706V5.71101H180.041V10.0303C180.041 10.3052 180.031 10.532 180.01 10.7106C179.996 10.8962 179.945 11.1093 179.856 11.3498C179.767 11.5972 179.641 11.8102 179.476 11.9889C179.052 12.4425 178.409 12.6693 177.547 12.6693C176.726 12.6693 176.089 12.4734 175.638 12.0817C175.268 11.7655 175.039 11.3601 174.95 10.8653H176.562C176.609 11.0508 176.719 11.202 176.89 11.3189C177.047 11.4219 177.259 11.4735 177.526 11.4735C177.834 11.4735 178.081 11.391 178.265 11.2261C178.463 11.0336 178.563 10.7141 178.563 10.2674V9.74165C178.282 10.2021 177.827 10.4323 177.198 10.4323C176.513 10.4323 175.956 10.2158 175.525 9.78288C175.08 9.32241 174.858 8.74513 174.858 8.05105C174.858 7.29511 175.084 6.68343 175.535 6.21613C175.959 5.7763 176.513 5.55638 177.198 5.55638C177.8 5.55638 178.255 5.78661 178.563 6.24706ZM177.537 6.84495C177.208 6.84495 176.937 6.94462 176.726 7.1439C176.493 7.36379 176.377 7.64902 176.377 7.99951C176.377 8.32248 176.483 8.5974 176.695 8.82419C176.9 9.04408 177.177 9.15406 177.526 9.15406C177.848 9.15406 178.115 9.05439 178.327 8.85511C178.566 8.62833 178.686 8.33627 178.686 7.97889C178.686 7.63529 178.569 7.35348 178.337 7.13359C178.125 6.94114 177.858 6.84495 177.537 6.84495ZM181.29 10.3086V5.71101H182.768V6.24706C183.055 5.8141 183.483 5.59762 184.05 5.59762C184.399 5.59762 184.687 5.66634 184.913 5.80379C185.152 5.94123 185.337 6.15428 185.467 6.44292C185.61 6.20239 185.805 6.00653 186.052 5.85533C186.333 5.68352 186.657 5.59762 187.027 5.59762C187.581 5.59762 188.009 5.74194 188.31 6.03058C188.625 6.33296 188.782 6.78999 188.782 7.40161V10.3086H187.304V7.97889C187.304 7.54593 187.239 7.24698 187.109 7.08205C186.979 6.91711 186.801 6.83464 186.575 6.83464C186.329 6.83464 186.138 6.92742 186 7.11297C185.85 7.30542 185.775 7.60778 185.775 8.02012V10.3086H184.297V7.91704C184.297 7.47718 184.219 7.17824 184.061 7.02019C183.938 6.89649 183.773 6.83464 183.568 6.83464C183.356 6.83464 183.185 6.89649 183.055 7.02019C182.864 7.20575 182.768 7.51842 182.768 7.95827V10.3086H181.29ZM193.552 6.22644V5.71101H195.03V10.3086H193.552V9.75195C193.244 10.2261 192.793 10.4632 192.198 10.4632C191.493 10.4632 190.921 10.2296 190.484 9.76226C190.038 9.28807 189.816 8.71421 189.816 8.04074C189.816 7.27791 190.053 6.6594 190.525 6.1852C190.942 5.76599 191.472 5.55638 192.115 5.55638C192.745 5.55638 193.224 5.77974 193.552 6.22644ZM192.485 6.83464C192.163 6.83464 191.893 6.94462 191.674 7.16451C191.448 7.3913 191.335 7.66963 191.335 7.99951C191.335 8.32938 191.438 8.60429 191.643 8.82419C191.869 9.0647 192.16 9.18499 192.516 9.18499C192.817 9.18499 193.073 9.07849 193.285 8.86542C193.525 8.63863 193.645 8.35 193.645 7.99951C193.645 7.64902 193.532 7.36727 193.306 7.15421C193.087 6.94114 192.813 6.83464 192.485 6.83464Z" fill="#E4FFC9"/>
<path d="M294.805 47.8882H297.217C297.99 47.8882 298.589 48.0772 299.013 48.4552C299.458 48.8469 299.68 49.4035 299.68 50.1251C299.68 50.7986 299.485 51.3381 299.095 51.7436C298.698 52.149 298.117 52.3518 297.351 52.3518H296.386V54.764H294.805V47.8882ZM296.386 49.1871V51.0529H296.95C297.34 51.0529 297.624 50.967 297.802 50.7952C297.973 50.6234 298.059 50.3966 298.059 50.1148C298.059 49.8262 297.973 49.6028 297.802 49.4448C297.624 49.2729 297.33 49.1871 296.92 49.1871H296.386ZM302.362 47.8882V50.5065H305.092V47.8882H306.672V54.764H305.092V51.8467H302.362V54.764H300.781V47.8882H302.362ZM308.271 47.8882H310.682C311.455 47.8882 312.054 48.0772 312.478 48.4552C312.923 48.8469 313.146 49.4035 313.146 50.1251C313.146 50.7986 312.951 51.3381 312.561 51.7436C312.164 52.149 311.582 52.3518 310.816 52.3518H309.851V54.764H308.271V47.8882ZM309.851 49.1871V51.0529H310.416C310.806 51.0529 311.089 50.967 311.267 50.7952C311.438 50.6234 311.524 50.3966 311.524 50.1148C311.524 49.8262 311.438 49.6028 311.267 49.4448C311.089 49.2729 310.795 49.1871 310.385 49.1871H309.851Z" fill="#E4FFC9"/>
<path d="M86.2746 82.4683C54.9717 106.608 42.6562 162.037 51.6365 177.822C60.6168 193.607 72.0499 192.949 84.3503 203.594C99.382 216.602 107.436 227.469 120.913 239.029C132.625 249.075 137.297 256.551 148.495 267.055C160.896 278.688 166.135 296.37 181.53 295.404C196.924 294.438 192.379 267.205 203.018 251.271C210.994 239.324 215.875 235.052 226.431 222.922C234.524 213.622 240.925 209.263 251.127 201.661C265.652 190.837 289.934 193.929 290.896 177.822C291.859 161.715 262.068 167.036 248.882 153.339C240.478 144.611 236.343 141.461 231.562 127.568C224.664 107.521 217.417 99.2319 208.15 81.1798C197.905 61.2238 189.548 31.2479 181.53 30.2814C173.511 29.315 152.048 46.6415 133.1 57.0192C114.846 67.0171 103.065 69.5202 86.2746 82.4683Z" fill="#E4FFC9" fill-opacity="0.3" stroke="#D3D3D3" stroke-opacity="0.5"/>
</svg>
