<svg width="588" height="535" viewBox="0 0 588 535" fill="none" xmlns="http://www.w3.org/2000/svg">
<path opacity="0.5" fill-rule="evenodd" clip-rule="evenodd" d="M504.829 267.985C504.829 395.908 401.345 499.611 273.691 499.611C146.037 499.611 42.5527 395.908 42.5527 267.985C42.5527 140.061 146.037 36.3586 273.691 36.3586C401.345 36.3586 504.829 140.061 504.829 267.985ZM505.796 267.985C505.796 396.443 401.879 500.58 273.691 500.58C145.503 500.58 41.5856 396.443 41.5856 267.985C41.5856 139.526 145.503 35.3894 273.691 35.3894C401.879 35.3894 505.796 139.526 505.796 267.985ZM458.408 267.985C458.408 370.216 375.707 453.092 273.691 453.092C171.675 453.092 88.9737 370.216 88.9737 267.985C88.9737 165.753 171.675 82.8776 273.691 82.8776C375.707 82.8776 458.408 165.753 458.408 267.985ZM459.375 267.985C459.375 370.752 376.242 454.061 273.691 454.061C171.14 454.061 88.0066 370.752 88.0066 267.985C88.0066 165.217 171.14 81.9085 273.691 81.9085C376.242 81.9085 459.375 165.217 459.375 267.985ZM273.691 313.535C298.794 313.535 319.145 293.141 319.145 267.985C319.145 242.829 298.794 222.435 273.691 222.435C248.588 222.435 228.237 242.829 228.237 267.985C228.237 293.141 248.588 313.535 273.691 313.535ZM273.691 314.504C299.329 314.504 320.112 293.677 320.112 267.985C320.112 242.293 299.329 221.466 273.691 221.466C248.053 221.466 227.27 242.293 227.27 267.985C227.27 293.677 248.053 314.504 273.691 314.504ZM273.691 269.923C274.759 269.923 275.625 269.056 275.625 267.985C275.625 266.914 274.759 266.046 273.691 266.046C272.622 266.046 271.757 266.914 271.757 267.985C271.757 269.056 272.622 269.923 273.691 269.923ZM273.691 360.054C324.432 360.054 365.566 318.833 365.566 267.985C365.566 217.136 324.432 175.916 273.691 175.916C222.95 175.916 181.816 217.136 181.816 267.985C181.816 318.833 222.95 360.054 273.691 360.054ZM273.691 361.023C324.966 361.023 366.533 319.368 366.533 267.985C366.533 216.601 324.966 174.947 273.691 174.947C222.416 174.947 180.849 216.601 180.849 267.985C180.849 319.368 222.416 361.023 273.691 361.023ZM411.987 267.985C411.987 344.525 350.07 406.573 273.691 406.573C197.312 406.573 135.395 344.525 135.395 267.985C135.395 191.444 197.312 129.397 273.691 129.397C350.07 129.397 411.987 191.444 411.987 267.985ZM412.954 267.985C412.954 345.06 350.604 407.542 273.691 407.542C196.778 407.542 134.428 345.06 134.428 267.985C134.428 190.909 196.778 128.428 273.691 128.428C350.604 128.428 412.954 190.909 412.954 267.985Z" fill="#D3D3D3"/>
<path opacity="0.5" fill-rule="evenodd" clip-rule="evenodd" d="M109.91 431.426L272.524 268.469H41.5856V267.5H272.665L109.084 103.574L109.767 102.889L273.207 266.672V35.3894H274.174V266.815L437.472 103.173L438.156 103.858L274.858 267.5H504.829V268.469H275L437.331 431.142L436.647 431.828L274.174 269.013V499.611H273.207V269.154L110.593 432.112L109.91 431.426Z" fill="#D3D3D3"/>
<path fill-rule="evenodd" clip-rule="evenodd" d="M273.691 41.2042C276.896 41.2042 279.493 38.6008 279.493 35.3893C279.493 32.1779 276.896 29.5745 273.691 29.5745C270.486 29.5745 267.888 32.1779 267.888 35.3893C267.888 38.6008 270.486 41.2042 273.691 41.2042ZM116.053 102.26C116.053 105.472 113.455 108.075 110.25 108.075C107.045 108.075 104.447 105.472 104.447 102.26C104.447 99.0487 107.045 96.4456 110.25 96.4456C113.455 96.4456 116.053 99.0487 116.053 102.26ZM437.132 108.075C440.337 108.075 442.934 105.472 442.934 102.26C442.934 99.0487 440.337 96.4456 437.132 96.4456C433.927 96.4456 431.329 99.0487 431.329 102.26C431.329 105.472 433.927 108.075 437.132 108.075ZM437.132 437.585C440.337 437.585 442.934 434.982 442.934 431.77C442.934 428.559 440.337 425.956 437.132 425.956C433.927 425.956 431.329 428.559 431.329 431.77C431.329 434.982 433.927 437.585 437.132 437.585ZM110.25 437.585C113.455 437.585 116.053 434.982 116.053 431.77C116.053 428.559 113.455 425.956 110.25 425.956C107.045 425.956 104.447 428.559 104.447 431.77C104.447 434.982 107.045 437.585 110.25 437.585ZM510.632 267.015C510.632 270.227 508.034 272.83 504.829 272.83C501.624 272.83 499.026 270.227 499.026 267.015C499.026 263.804 501.624 261.201 504.829 261.201C508.034 261.201 510.632 263.804 510.632 267.015ZM40.6184 272.83C43.8231 272.83 46.4211 270.227 46.4211 267.015C46.4211 263.804 43.8231 261.201 40.6184 261.201C37.4137 261.201 34.8158 263.804 34.8158 267.015C34.8158 270.227 37.4137 272.83 40.6184 272.83ZM279.493 499.611C279.493 502.823 276.896 505.426 273.691 505.426C270.486 505.426 267.888 502.823 267.888 499.611C267.888 496.399 270.486 493.796 273.691 493.796C276.896 493.796 279.493 496.399 279.493 499.611Z" fill="#E4FFC9"/>
<path d="M236.59 519.311H240.226C241.392 519.311 242.295 519.595 242.934 520.164C243.605 520.754 243.94 521.591 243.94 522.676C243.94 523.689 243.646 524.501 243.058 525.111C242.46 525.72 241.583 526.026 240.427 526.026H238.973V529.654H236.59V519.311ZM238.973 521.265V524.072H239.824C240.412 524.072 240.84 523.943 241.108 523.684C241.366 523.426 241.495 523.084 241.495 522.661C241.495 522.227 241.366 521.89 241.108 521.653C240.84 521.394 240.396 521.265 239.777 521.265H238.973ZM245.399 529.654V518.35H247.627V523.56C247.885 523.239 248.163 523.002 248.463 522.847C248.834 522.65 249.283 522.552 249.809 522.552C250.654 522.552 251.304 522.785 251.759 523.25C252.212 523.705 252.44 524.377 252.44 525.266V529.654H250.211V526.103C250.211 525.421 250.088 524.961 249.84 524.723C249.633 524.517 249.345 524.413 248.973 524.413C248.612 524.413 248.318 524.526 248.092 524.754C247.782 525.054 247.627 525.534 247.627 526.196V529.654H245.399ZM260.896 523.622C261.587 524.315 261.933 525.173 261.933 526.196C261.933 527.22 261.587 528.077 260.896 528.77C260.153 529.515 259.147 529.887 257.879 529.887C256.61 529.887 255.604 529.515 254.861 528.77C254.171 528.077 253.825 527.22 253.825 526.196C253.825 525.173 254.171 524.315 254.861 523.622C255.604 522.878 256.61 522.506 257.879 522.506C259.147 522.506 260.153 522.878 260.896 523.622ZM259.132 524.894C258.802 524.563 258.384 524.398 257.879 524.398C257.374 524.398 256.956 524.563 256.625 524.894C256.285 525.235 256.115 525.669 256.115 526.196C256.115 526.724 256.285 527.158 256.625 527.499C256.956 527.829 257.379 527.995 257.894 527.995C258.389 527.995 258.802 527.829 259.132 527.499C259.472 527.158 259.643 526.724 259.643 526.196C259.643 525.669 259.472 525.235 259.132 524.894ZM267.144 524.537H265.767V529.654H263.539V524.537H262.765V522.738H263.539V520.505H265.767V522.738H267.144V524.537ZM274.987 523.622C275.678 524.315 276.023 525.173 276.023 526.196C276.023 527.22 275.678 528.077 274.987 528.77C274.244 529.515 273.238 529.887 271.969 529.887C270.701 529.887 269.695 529.515 268.952 528.77C268.261 528.077 267.915 527.22 267.915 526.196C267.915 525.173 268.261 524.315 268.952 523.622C269.695 522.878 270.701 522.506 271.969 522.506C273.238 522.506 274.244 522.878 274.987 523.622ZM273.223 524.894C272.893 524.563 272.475 524.398 271.969 524.398C271.465 524.398 271.047 524.563 270.716 524.894C270.376 525.235 270.205 525.669 270.205 526.196C270.205 526.724 270.376 527.158 270.716 527.499C271.047 527.829 271.469 527.995 271.985 527.995C272.48 527.995 272.893 527.829 273.223 527.499C273.563 527.158 273.733 526.724 273.733 526.196C273.733 525.669 273.563 525.235 273.223 524.894ZM282.674 523.095L281.792 524.506C281.359 524.247 280.952 524.118 280.57 524.118C280.281 524.118 280.07 524.185 279.935 524.32C279.843 524.413 279.796 524.517 279.796 524.63C279.796 524.754 279.869 524.858 280.013 524.94C280.033 524.961 280.256 525.038 280.678 525.173L281.266 525.359C281.761 525.514 282.143 525.716 282.411 525.964C282.772 526.294 282.953 526.734 282.953 527.282C282.953 528.015 282.716 528.62 282.241 529.096C281.715 529.623 280.967 529.887 279.997 529.887C278.863 529.887 277.919 529.556 277.166 528.894L278.109 527.39C278.377 527.618 278.631 527.789 278.868 527.902C279.157 528.046 279.466 528.119 279.796 528.119C280.126 528.119 280.358 528.068 280.492 527.964C280.647 527.84 280.725 527.69 280.725 527.514C280.725 527.349 280.642 527.215 280.477 527.111C280.364 527.038 280.137 526.956 279.796 526.863L279.239 526.692C278.775 526.548 278.403 526.336 278.125 526.057C277.795 525.705 277.63 525.286 277.63 524.801C277.63 524.149 277.851 523.617 278.295 523.204C278.801 522.738 279.497 522.506 280.384 522.506C281.24 522.506 282.004 522.703 282.674 523.095ZM284.494 529.654V518.35H286.723V523.56C286.98 523.239 287.258 523.002 287.558 522.847C287.929 522.65 288.378 522.552 288.904 522.552C289.75 522.552 290.399 522.785 290.854 523.25C291.308 523.705 291.535 524.377 291.535 525.266V529.654H289.307V526.103C289.307 525.421 289.183 524.961 288.935 524.723C288.728 524.517 288.44 524.413 288.069 524.413C287.707 524.413 287.413 524.526 287.187 524.754C286.877 525.054 286.723 525.534 286.723 526.196V529.654H284.494ZM299.991 523.622C300.683 524.315 301.028 525.173 301.028 526.196C301.028 527.22 300.683 528.077 299.991 528.77C299.248 529.515 298.243 529.887 296.974 529.887C295.705 529.887 294.699 529.515 293.956 528.77C293.266 528.077 292.92 527.22 292.92 526.196C292.92 525.173 293.266 524.315 293.956 523.622C294.699 522.878 295.705 522.506 296.974 522.506C298.243 522.506 299.248 522.878 299.991 523.622ZM298.227 524.894C297.897 524.563 297.48 524.398 296.974 524.398C296.469 524.398 296.051 524.563 295.72 524.894C295.38 525.235 295.21 525.669 295.21 526.196C295.21 526.724 295.38 527.158 295.72 527.499C296.051 527.829 296.474 527.995 296.989 527.995C297.484 527.995 297.897 527.829 298.227 527.499C298.568 527.158 298.738 526.724 298.738 526.196C298.738 525.669 298.568 525.235 298.227 524.894ZM304.801 528.863V533.205H302.572V522.738H304.801V523.56C305.337 522.858 306.054 522.506 306.951 522.506C307.931 522.506 308.746 522.831 309.396 523.483C310.088 524.176 310.433 525.075 310.433 526.181C310.433 527.297 310.067 528.223 309.334 528.956C308.715 529.577 307.937 529.887 306.998 529.887C306.018 529.887 305.285 529.546 304.801 528.863ZM306.41 524.429C305.925 524.429 305.512 524.599 305.172 524.94C304.821 525.292 304.646 525.716 304.646 526.212C304.646 526.677 304.811 527.085 305.141 527.437C305.492 527.789 305.915 527.964 306.41 527.964C306.863 527.964 307.261 527.804 307.601 527.483C307.962 527.142 308.143 526.703 308.143 526.165C308.143 525.658 307.968 525.24 307.617 524.909C307.276 524.589 306.874 524.429 306.41 524.429Z" fill="#E4FFC9"/>
<path d="M445.967 460.845H443.584L445.24 450.502H447.22L449.789 456.689L452.358 450.502H454.338L455.994 460.845H453.611L452.791 454.673L450.207 460.845H449.371L446.787 454.673L445.967 460.845ZM457.692 464.396L460.122 459.961L456.826 453.929H459.394L461.344 457.682L463.247 453.929H465.754L460.199 464.396H457.692ZM473.521 451.293L472.453 453.03C471.907 452.533 471.329 452.285 470.72 452.285C470.267 452.285 469.931 452.405 469.714 452.642C469.539 452.817 469.451 453.035 469.451 453.293C469.451 453.531 469.529 453.723 469.683 453.867C469.736 453.909 469.787 453.949 469.838 453.991C469.89 454.022 469.962 454.058 470.055 454.1C470.148 454.141 470.225 454.177 470.287 454.208C470.349 454.228 470.457 454.27 470.612 454.332C470.767 454.384 470.89 454.425 470.983 454.456L471.757 454.751C472.407 454.999 472.877 455.263 473.165 455.542C473.671 456.018 473.923 456.658 473.923 457.464C473.923 458.539 473.619 459.392 473.01 460.023C472.34 460.726 471.365 461.077 470.086 461.077C469.302 461.077 468.622 460.933 468.043 460.643C467.528 460.384 467.022 460.008 466.527 459.511L467.765 457.806C468.116 458.157 468.436 458.421 468.724 458.596C469.126 458.845 469.56 458.969 470.024 458.969C470.468 458.969 470.828 458.849 471.107 458.612C471.355 458.406 471.478 458.126 471.478 457.775C471.478 457.485 471.36 457.237 471.122 457.03C470.937 456.875 470.534 456.684 469.915 456.457L469.064 456.162C468.394 455.924 467.915 455.65 467.625 455.34C467.213 454.906 467.006 454.306 467.006 453.541C467.006 452.6 467.306 451.825 467.904 451.215C468.523 450.584 469.374 450.27 470.457 450.27C471.582 450.27 472.603 450.611 473.521 451.293ZM484.628 461.326L483.622 460.271C482.89 460.809 481.925 461.077 480.729 461.077C479.192 461.077 477.928 460.586 476.938 459.604C475.854 458.53 475.313 457.216 475.313 455.666C475.313 454.921 475.452 454.213 475.731 453.541C476.02 452.87 476.401 452.296 476.876 451.82C477.908 450.786 479.254 450.27 480.914 450.27C482.513 450.27 483.844 450.766 484.907 451.758C485.979 452.761 486.516 454.073 486.516 455.697C486.516 456.379 486.372 457.046 486.083 457.697C485.846 458.245 485.51 458.71 485.077 459.093L486.872 461.046L484.628 461.326ZM482.539 456.534L483.468 457.526C483.87 456.979 484.071 456.359 484.071 455.666C484.071 454.735 483.777 453.976 483.189 453.386C482.601 452.777 481.843 452.471 480.914 452.471C479.997 452.471 479.243 452.777 478.655 453.386C478.057 454.007 477.758 454.782 477.758 455.712C477.758 456.601 478.047 457.351 478.624 457.961C479.212 458.57 479.955 458.876 480.852 458.876C481.296 458.876 481.708 458.787 482.09 458.612L480.234 456.782L482.539 456.534ZM488.535 450.502H490.918V458.829H494.121V460.845H488.535V450.502Z" fill="#E4FFC9"/>
<path d="M519.544 262.488H521.927V272.83H519.544V262.488ZM524.182 261.526H526.41V272.83H524.182V261.526ZM528.416 261.526H530.644V272.83H528.416V261.526ZM532.589 265.914H534.817V269.729C534.817 270.236 534.946 270.608 535.204 270.845C535.441 271.063 535.75 271.171 536.132 271.171C536.524 271.171 536.839 271.063 537.076 270.845C537.324 270.608 537.448 270.236 537.448 269.729V265.914H539.676V269.946C539.676 270.422 539.624 270.835 539.521 271.187C539.428 271.528 539.222 271.853 538.902 272.163C538.294 272.763 537.37 273.063 536.132 273.063C534.884 273.063 533.955 272.763 533.347 272.163C532.841 271.667 532.589 270.974 532.589 270.086V265.914ZM546.675 266.271L545.793 267.682C545.359 267.423 544.952 267.294 544.57 267.294C544.281 267.294 544.07 267.361 543.936 267.496C543.843 267.589 543.797 267.693 543.797 267.806C543.797 267.93 543.869 268.034 544.013 268.116C544.033 268.137 544.256 268.214 544.679 268.349L545.267 268.535C545.762 268.69 546.144 268.892 546.412 269.14C546.772 269.47 546.953 269.91 546.953 270.458C546.953 271.191 546.716 271.796 546.241 272.272C545.715 272.799 544.968 273.063 543.998 273.063C542.863 273.063 541.919 272.732 541.166 272.07L542.11 270.566C542.378 270.794 542.631 270.965 542.868 271.078C543.157 271.222 543.467 271.295 543.797 271.295C544.126 271.295 544.358 271.244 544.493 271.14C544.648 271.016 544.725 270.866 544.725 270.69C544.725 270.525 544.643 270.391 544.477 270.287C544.364 270.215 544.137 270.132 543.797 270.039L543.239 269.869C542.775 269.724 542.404 269.512 542.125 269.233C541.796 268.881 541.63 268.462 541.63 267.977C541.63 267.326 541.852 266.793 542.296 266.38C542.801 265.914 543.498 265.682 544.385 265.682C545.24 265.682 546.004 265.879 546.675 266.271ZM552.1 267.713H550.723V272.83H548.495V267.713H547.721V265.914H548.495V263.682H550.723V265.914H552.1V267.713ZM553.211 272.83V265.914H555.439V267C555.656 266.576 555.945 266.256 556.306 266.038C556.616 265.842 557.013 265.744 557.498 265.744C557.756 265.744 557.997 265.78 558.225 265.852L558.101 267.946C557.791 267.78 557.456 267.698 557.095 267.698C556.642 267.698 556.27 267.853 555.981 268.163C555.62 268.546 555.439 269.166 555.439 270.024V272.83H553.211ZM564.37 266.69V265.914H566.598V272.83H564.37V271.993C563.906 272.706 563.225 273.063 562.327 273.063C561.264 273.063 560.404 272.711 559.743 272.008C559.073 271.295 558.737 270.432 558.737 269.419C558.737 268.271 559.093 267.341 559.805 266.628C560.435 265.997 561.233 265.682 562.203 265.682C563.152 265.682 563.875 266.018 564.37 266.69ZM562.76 267.605C562.276 267.605 561.868 267.77 561.538 268.101C561.198 268.442 561.027 268.861 561.027 269.357C561.027 269.853 561.182 270.267 561.492 270.597C561.832 270.959 562.27 271.14 562.807 271.14C563.261 271.14 563.647 270.98 563.967 270.659C564.328 270.318 564.509 269.884 564.509 269.357C564.509 268.83 564.339 268.406 563.998 268.085C563.669 267.765 563.256 267.605 562.76 267.605ZM572.148 267.713H570.771V272.83H568.543V267.713H567.769V265.914H568.543V263.682H570.771V265.914H572.148V267.713ZM579.99 266.798C580.682 267.491 581.027 268.349 581.027 269.372C581.027 270.396 580.682 271.253 579.99 271.946C579.248 272.691 578.242 273.063 576.973 273.063C575.704 273.063 574.698 272.691 573.956 271.946C573.264 271.253 572.919 270.396 572.919 269.372C572.919 268.349 573.264 267.491 573.956 266.798C574.698 266.054 575.704 265.682 576.973 265.682C578.242 265.682 579.248 266.054 579.99 266.798ZM578.226 268.07C577.897 267.739 577.479 267.574 576.973 267.574C576.467 267.574 576.049 267.739 575.72 268.07C575.379 268.411 575.209 268.845 575.209 269.372C575.209 269.9 575.379 270.334 575.72 270.675C576.049 271.005 576.473 271.171 576.989 271.171C577.484 271.171 577.897 271.005 578.226 270.675C578.567 270.334 578.737 269.9 578.737 269.372C578.737 268.845 578.567 268.411 578.226 268.07ZM582.572 272.83V265.914H584.8V267C585.016 266.576 585.305 266.256 585.666 266.038C585.976 265.842 586.372 265.744 586.858 265.744C587.115 265.744 587.358 265.78 587.585 265.852L587.461 267.946C587.152 267.78 586.816 267.698 586.456 267.698C586.001 267.698 585.63 267.853 585.341 268.163C584.98 268.546 584.8 269.166 584.8 270.024V272.83H582.572Z" fill="#E4FFC9"/>
<path d="M68.6 72.5347V76.4733H72.716V72.5347H75.0989V82.8774H72.716V78.4891H68.6V82.8774H66.217V72.5347H68.6ZM83.3731 74.5505H81.1294V82.8774H78.7465V74.5505H76.5028V72.5347H83.3731V74.5505ZM86.6839 82.8774H84.3009L85.9566 72.5347H87.9373L90.5059 78.7217L93.0745 72.5347H95.0552L96.7106 82.8774H94.3279L93.5078 76.7059L90.9237 82.8774H90.0881L87.504 76.7059L86.6839 82.8774ZM98.6409 72.5347H101.024V80.8616H104.227V82.8774H98.6409V72.5347Z" fill="#E4FFC9"/>
<path d="M33.5669 450.502H35.9498V457.542C35.9498 458.793 35.6507 459.713 35.0523 460.302C34.5366 460.819 33.8093 461.077 32.8705 461.077C32.1897 461.077 31.643 460.953 31.2303 460.705C30.8693 460.477 30.5444 460.189 30.2555 459.837L31.741 458.162C31.8751 458.431 31.9989 458.622 32.1123 458.736C32.2671 458.891 32.4631 458.968 32.7003 458.968C32.9273 458.968 33.113 458.896 33.2574 458.751C33.4638 458.545 33.5669 458.136 33.5669 457.526V450.502ZM43.3932 454.704V453.929H45.6214V460.845H43.3932V460.007C42.929 460.721 42.2482 461.077 41.3507 461.077C40.2882 461.077 39.4268 460.726 38.7666 460.023C38.0961 459.31 37.7608 458.446 37.7608 457.433C37.7608 456.286 38.1167 455.355 38.8285 454.642C39.4578 454.011 40.2573 453.696 41.2269 453.696C42.176 453.696 42.8981 454.033 43.3932 454.704ZM41.784 455.619C41.2992 455.619 40.8917 455.785 40.5615 456.115C40.2211 456.456 40.0509 456.875 40.0509 457.371C40.0509 457.868 40.2057 458.281 40.5151 458.612C40.8555 458.973 41.294 459.155 41.8304 459.155C42.2843 459.155 42.6712 458.995 42.9909 458.674C43.352 458.333 43.5325 457.899 43.5325 457.371C43.5325 456.844 43.3623 456.421 43.0219 456.1C42.6918 455.779 42.2791 455.619 41.784 455.619ZM46.6683 453.929H49.1132L50.8617 457.635L52.6102 453.929H55.0551L51.558 460.845H50.1654L46.6683 453.929ZM61.171 454.704V453.929H63.3993V460.845H61.171V460.007C60.7068 460.721 60.026 461.077 59.1285 461.077C58.0661 461.077 57.2047 460.726 56.5444 460.023C55.8739 459.31 55.5386 458.446 55.5386 457.433C55.5386 456.286 55.8945 455.355 56.6063 454.642C57.2356 454.011 58.0351 453.696 59.0047 453.696C59.9538 453.696 60.6759 454.033 61.171 454.704ZM59.5618 455.619C59.077 455.619 58.6695 455.785 58.3394 456.115C57.9989 456.456 57.8287 456.875 57.8287 457.371C57.8287 457.868 57.9835 458.281 58.2929 458.612C58.6334 458.973 59.0718 459.155 59.6082 459.155C60.0622 459.155 60.449 458.995 60.7687 458.674C61.1298 458.333 61.3103 457.899 61.3103 457.371C61.3103 456.844 61.1401 456.421 60.7997 456.1C60.4696 455.779 60.0569 455.619 59.5618 455.619ZM71.9354 451.293L70.8677 453.03C70.321 452.533 69.7434 452.285 69.1347 452.285C68.6808 452.285 68.3455 452.404 68.1289 452.642C67.9535 452.817 67.8658 453.034 67.8658 453.293C67.8658 453.531 67.9432 453.722 68.0979 453.867C68.1496 453.909 68.2011 453.949 68.2527 453.991C68.3043 454.022 68.3765 454.058 68.4693 454.099C68.5621 454.141 68.6395 454.177 68.7014 454.208C68.7633 454.228 68.8716 454.27 69.0264 454.332C69.1811 454.383 69.3049 454.425 69.3977 454.456L70.1714 454.751C70.8213 454.999 71.2907 455.262 71.5795 455.542C72.085 456.017 72.3377 456.658 72.3377 457.464C72.3377 458.539 72.0335 459.392 71.4248 460.023C70.7543 460.726 69.7794 461.077 68.5002 461.077C67.7163 461.077 67.0355 460.933 66.4577 460.643C65.942 460.384 65.4365 460.007 64.9413 459.511L66.1792 457.806C66.53 458.157 66.8498 458.421 67.1386 458.596C67.5409 458.844 67.9741 458.968 68.4384 458.968C68.882 458.968 69.243 458.849 69.5215 458.612C69.7691 458.405 69.8929 458.126 69.8929 457.774C69.8929 457.485 69.7743 457.237 69.537 457.03C69.3513 456.875 68.949 456.684 68.33 456.456L67.479 456.162C66.8085 455.924 66.3288 455.65 66.0399 455.34C65.6274 454.906 65.421 454.306 65.421 453.541C65.421 452.6 65.7202 451.825 66.3185 451.215C66.9374 450.584 67.7885 450.269 68.8716 450.269C69.9961 450.269 71.0173 450.611 71.9354 451.293ZM79.1277 454.084V456.115C78.7048 455.763 78.2199 455.588 77.6731 455.588C77.1574 455.588 76.7345 455.754 76.4043 456.084C76.0639 456.425 75.8937 456.86 75.8937 457.387C75.8937 457.883 76.0484 458.297 76.3579 458.627C76.6983 458.999 77.147 459.186 77.7041 459.186C78.2302 459.186 78.7048 459.004 79.1277 458.643V460.659C78.6223 460.938 78.0343 461.077 77.3637 461.077C76.2909 461.077 75.3985 460.731 74.6867 460.038C73.9647 459.336 73.6036 458.457 73.6036 457.402C73.6036 456.306 73.9853 455.397 74.7486 454.673C75.4398 454.022 76.3167 453.696 77.3791 453.696C77.9981 453.696 78.581 453.825 79.1277 454.084ZM80.7627 460.845V453.929H82.9909V455.014C83.2075 454.591 83.4964 454.27 83.8574 454.053C84.1669 453.856 84.5641 453.758 85.0489 453.758C85.3068 453.758 85.5493 453.794 85.7761 453.867L85.6523 455.96C85.3429 455.795 85.0077 455.712 84.6466 455.712C84.1927 455.712 83.8213 455.867 83.5325 456.177C83.1714 456.56 82.9909 457.18 82.9909 458.038V460.845H80.7627ZM87.0108 453.929H89.239V460.845H87.0108V453.929ZM87.1965 451.913C86.9489 451.654 86.8251 451.344 86.8251 450.983C86.8251 450.621 86.9489 450.316 87.1965 450.068C87.4543 449.809 87.7638 449.68 88.1249 449.68C88.486 449.68 88.7903 449.809 89.0379 450.068C89.2957 450.316 89.4247 450.621 89.4247 450.983C89.4247 451.344 89.2957 451.654 89.0379 451.913C88.7903 452.161 88.486 452.285 88.1249 452.285C87.7638 452.285 87.4543 452.161 87.1965 451.913ZM93.5154 460.054V464.396H91.2872V453.929H93.5154V454.751C94.0518 454.048 94.7688 453.696 95.6662 453.696C96.6463 453.696 97.461 454.022 98.1109 454.673C98.8024 455.366 99.1476 456.266 99.1476 457.371C99.1476 458.488 98.7821 459.413 98.049 460.147C97.43 460.767 96.6514 461.077 95.7127 461.077C94.7327 461.077 94.0003 460.736 93.5154 460.054ZM95.1247 455.619C94.6398 455.619 94.2272 455.79 93.8868 456.131C93.5361 456.483 93.3607 456.906 93.3607 457.402C93.3607 457.868 93.5257 458.276 93.8558 458.627C94.2066 458.979 94.6295 459.155 95.1247 459.155C95.5786 459.155 95.9757 458.995 96.3161 458.674C96.6772 458.333 96.8575 457.894 96.8575 457.356C96.8575 456.849 96.6824 456.43 96.3316 456.1C95.9912 455.779 95.5889 455.619 95.1247 455.619ZM104.357 455.728H102.98V460.845H100.752V455.728H99.9784V453.929H100.752V451.696H102.98V453.929H104.357V455.728Z" fill="#E4FFC9"/>
<path d="M8.97352 269.76V272.505C8.24111 272.877 7.48289 273.063 6.69889 273.063C5.01741 273.063 3.66605 272.562 2.64479 271.559C1.57195 270.515 1.03552 269.207 1.03552 267.636C1.03552 266.085 1.57195 264.787 2.64479 263.743C3.66605 262.751 4.95036 262.255 6.49773 262.255C7.2611 262.255 8.08637 262.446 8.97352 262.829V265.589C8.28236 264.855 7.47773 264.488 6.55963 264.488C5.71373 264.488 5.01226 264.756 4.45521 265.294C3.80531 265.925 3.48036 266.721 3.48036 267.682C3.48036 268.623 3.77952 269.383 4.37784 269.962C4.95552 270.54 5.69826 270.83 6.60605 270.83C7.46226 270.83 8.25141 270.473 8.97352 269.76ZM17.4295 263.278L16.3618 265.015C15.815 264.519 15.2373 264.271 14.6287 264.271C14.1748 264.271 13.8396 264.39 13.6229 264.627C13.4475 264.803 13.3599 265.02 13.3599 265.279C13.3599 265.516 13.4372 265.708 13.592 265.852C13.6435 265.894 13.6951 265.935 13.7467 265.976C13.7983 266.007 13.8705 266.043 13.9634 266.085C14.0562 266.127 14.1336 266.162 14.1955 266.193C14.2573 266.214 14.3657 266.256 14.5204 266.318C14.6751 266.369 14.7989 266.411 14.8918 266.442L15.6655 266.736C16.3153 266.984 16.7847 267.248 17.0736 267.527C17.579 268.003 17.8318 268.643 17.8318 269.45C17.8318 270.525 17.5274 271.377 16.9188 272.008C16.2482 272.711 15.2734 273.063 13.9943 273.063C13.2103 273.063 12.5294 272.918 11.9518 272.629C11.4359 272.37 10.9305 271.993 10.4354 271.497L11.6732 269.791C12.0239 270.143 12.3437 270.406 12.6326 270.582C13.0349 270.83 13.4682 270.954 13.9324 270.954C14.3759 270.954 14.737 270.835 15.0156 270.597C15.2631 270.391 15.3869 270.112 15.3869 269.76C15.3869 269.47 15.2683 269.222 15.031 269.016C14.8454 268.861 14.443 268.67 13.8241 268.442L12.973 268.147C12.3024 267.91 11.8228 267.636 11.534 267.325C11.1213 266.891 10.915 266.291 10.915 265.527C10.915 264.586 11.2142 263.81 11.8125 263.201C12.4315 262.57 13.2825 262.255 14.3657 262.255C15.49 262.255 16.5113 262.596 17.4295 263.278ZM26.0916 263.278L25.0239 265.015C24.4772 264.519 23.8996 264.271 23.2909 264.271C22.837 264.271 22.5017 264.39 22.2851 264.627C22.1098 264.803 22.022 265.02 22.022 265.279C22.022 265.516 22.0994 265.708 22.2542 265.852C22.3058 265.894 22.3573 265.935 22.4089 265.976C22.4605 266.007 22.5327 266.043 22.6255 266.085C22.7184 266.127 22.7957 266.162 22.8576 266.193C22.9195 266.214 23.0278 266.256 23.1826 266.318C23.3373 266.369 23.4611 266.411 23.5539 266.442L24.3276 266.736C24.9775 266.984 25.447 267.248 25.7357 267.527C26.2412 268.003 26.4939 268.643 26.4939 269.45C26.4939 270.525 26.1897 271.377 25.581 272.008C24.9105 272.711 23.9357 273.063 22.6565 273.063C21.8725 273.063 21.1917 272.918 20.6139 272.629C20.0982 272.37 19.5927 271.993 19.0975 271.497L20.3354 269.791C20.6862 270.143 21.006 270.406 21.2948 270.582C21.6971 270.83 22.1304 270.954 22.5946 270.954C23.0382 270.954 23.3992 270.835 23.6777 270.597C23.9253 270.391 24.0491 270.112 24.0491 269.76C24.0491 269.47 23.9305 269.222 23.6932 269.016C23.5075 268.861 23.1052 268.67 22.4863 268.442L21.6352 268.147C20.9647 267.91 20.485 267.636 20.1962 267.325C19.7836 266.891 19.5772 266.291 19.5772 265.527C19.5772 264.586 19.8764 263.81 20.4747 263.201C21.0936 262.57 21.9447 262.255 23.0278 262.255C24.1523 262.255 25.1736 262.596 26.0916 263.278Z" fill="#E4FFC9"/>
<path d="M258.363 5.66363V7.67946H255.021V9.67978H258.116V11.6956H255.021V16.0064H252.638V5.66363H258.363ZM259.696 9.09054H261.924V16.0064H259.696V9.09054ZM259.882 7.07471C259.634 6.81627 259.51 6.50614 259.51 6.14433C259.51 5.78252 259.634 5.47756 259.882 5.22946C260.139 4.97101 260.448 4.8418 260.81 4.8418C261.171 4.8418 261.475 4.97101 261.723 5.22946C261.98 5.47756 262.11 5.78252 262.11 6.14433C262.11 6.50614 261.98 6.81627 261.723 7.07471C261.475 7.32281 261.171 7.44686 260.81 7.44686C260.448 7.44686 260.139 7.32281 259.882 7.07471ZM269.218 9.89687V9.09054H271.446V15.5877C271.446 16.0012 271.431 16.3424 271.4 16.6111C271.378 16.8902 271.301 17.2107 271.168 17.5725C271.033 17.9447 270.843 18.2652 270.595 18.5339C269.955 19.2162 268.986 19.5573 267.686 19.5573C266.448 19.5573 265.489 19.2627 264.808 18.6735C264.251 18.1979 263.905 17.588 263.771 16.8437H266.201C266.272 17.1228 266.438 17.3503 266.696 17.526C266.933 17.6811 267.253 17.7586 267.655 17.7586C268.119 17.7586 268.491 17.6345 268.769 17.3864C269.068 17.097 269.218 16.6163 269.218 15.9443V15.1535C268.794 15.8462 268.109 16.1924 267.16 16.1924C266.128 16.1924 265.288 15.8668 264.638 15.2155C263.967 14.5229 263.632 13.6545 263.632 12.6105C263.632 11.4734 263.972 10.5533 264.653 9.85035C265.292 9.18874 266.128 8.85794 267.16 8.85794C268.067 8.85794 268.754 9.20425 269.218 9.89687ZM267.671 10.7962C267.175 10.7962 266.767 10.9462 266.448 11.2459C266.097 11.5767 265.922 12.0057 265.922 12.5329C265.922 13.0188 266.082 13.4323 266.402 13.7735C266.711 14.1042 267.129 14.2697 267.655 14.2697C268.14 14.2697 268.542 14.1197 268.862 13.82C269.223 13.4788 269.404 13.0395 269.404 12.5019C269.404 11.9851 269.228 11.5612 268.878 11.2304C268.557 10.9409 268.155 10.7962 267.671 10.7962ZM273.329 16.0064V9.09054H275.557V9.89687C275.991 9.2456 276.636 8.91997 277.492 8.91997C278.018 8.91997 278.451 9.02335 278.791 9.23009C279.153 9.43684 279.432 9.75731 279.627 10.1915C279.844 9.82968 280.138 9.53506 280.509 9.30763C280.932 9.04918 281.422 8.91997 281.979 8.91997C282.814 8.91997 283.46 9.13706 283.913 9.57123C284.388 10.0261 284.625 10.7136 284.625 11.6336V16.0064H282.397V12.5019C282.397 11.8507 282.299 11.401 282.103 11.1529C281.907 10.9048 281.638 10.7807 281.298 10.7807C280.927 10.7807 280.638 10.9203 280.432 11.1994C280.205 11.4889 280.091 11.9437 280.091 12.564V16.0064H277.863V12.4089C277.863 11.7473 277.745 11.2976 277.507 11.0598C277.321 10.8738 277.074 10.7807 276.764 10.7807C276.445 10.7807 276.187 10.8738 275.991 11.0598C275.702 11.339 275.557 11.8093 275.557 12.4709V16.0064H273.329ZM291.817 9.86585V9.09054H294.045V16.0064H291.817V15.169C291.353 15.8823 290.672 16.239 289.775 16.239C288.712 16.239 287.85 15.8875 287.191 15.1845C286.519 14.4712 286.185 13.608 286.185 12.595C286.185 11.4475 286.541 10.5171 287.253 9.80383C287.881 9.17323 288.681 8.85794 289.651 8.85794C290.6 8.85794 291.322 9.19392 291.817 9.86585ZM290.208 10.7807C289.723 10.7807 289.315 10.9462 288.986 11.2769C288.645 11.6181 288.475 12.0367 288.475 12.5329C288.475 13.0292 288.63 13.4427 288.939 13.7735C289.28 14.1352 289.718 14.3162 290.254 14.3162C290.708 14.3162 291.095 14.156 291.415 13.8355C291.776 13.4943 291.957 13.0602 291.957 12.5329C291.957 12.0057 291.786 11.5819 291.446 11.2614C291.115 10.9409 290.703 10.7807 290.208 10.7807Z" fill="#E4FFC9"/>
<path d="M444.476 72.5347H448.112C449.277 72.5347 450.181 72.8189 450.82 73.3875C451.49 73.9768 451.826 74.8141 451.826 75.8995C451.826 76.9126 451.532 77.7242 450.944 78.334C450.345 78.9439 449.469 79.2489 448.313 79.2489H446.859V82.8774H444.476V72.5347ZM446.859 74.4885V77.2951H447.71C448.298 77.2951 448.726 77.1659 448.994 76.9075C449.252 76.649 449.381 76.3078 449.381 75.884C449.381 75.4499 449.252 75.1139 448.994 74.8761C448.726 74.6177 448.282 74.4885 447.663 74.4885H446.859ZM455.868 72.5347V76.4733H459.984V72.5347H462.367V82.8774H459.984V78.4891H455.868V82.8774H453.485V72.5347H455.868ZM464.777 72.5347H468.414C469.579 72.5347 470.481 72.8189 471.121 73.3875C471.792 73.9768 472.127 74.8141 472.127 75.8995C472.127 76.9126 471.833 77.7242 471.245 78.334C470.647 78.9439 469.769 79.2489 468.615 79.2489H467.16V82.8774H464.777V72.5347ZM467.16 74.4885V77.2951H468.011C468.599 77.2951 469.027 77.1659 469.296 76.9075C469.553 76.649 469.682 76.3078 469.682 75.884C469.682 75.4499 469.553 75.1139 469.296 74.8761C469.027 74.6177 468.584 74.4885 467.965 74.4885H467.16Z" fill="#E4FFC9"/>
<path d="M130.076 124.551C82.8804 160.862 64.3125 244.24 77.8519 267.985C91.3914 291.729 108.629 290.738 127.174 306.75C149.837 326.319 161.98 342.664 182.299 360.054C199.958 375.165 207.002 386.41 223.885 402.211C242.582 419.709 250.48 446.308 273.691 444.854C296.901 443.4 290.048 402.436 306.089 378.467C318.115 360.497 325.472 354.071 341.388 335.825C353.59 321.836 363.241 315.278 378.622 303.843C400.522 287.561 437.132 292.213 438.582 267.985C440.033 243.756 395.118 251.76 375.237 231.157C362.567 218.027 356.333 213.289 349.125 192.391C338.724 162.236 327.798 149.767 313.826 122.613C298.38 92.5943 285.78 47.5037 273.691 46.05C261.602 44.5963 229.242 70.6592 200.674 86.2696C173.152 101.309 155.391 105.074 130.076 124.551Z" fill="#E4FFC9" fill-opacity="0.3" stroke="#D3D3D3" stroke-opacity="0.5"/>
</svg>
